%TF.GenerationSoftware,KiCad,Pcbnew,8.0.6*%
%TF.CreationDate,2024-11-08T16:37:23+02:00*%
%TF.ProjectId,MiniBit,4d696e69-4269-4742-9e6b-696361645f70,1.0*%
%TF.SameCoordinates,Original*%
%TF.FileFunction,Legend,Bot*%
%TF.FilePolarity,Positive*%
%FSLAX46Y46*%
G04 Gerber Fmt 4.6, Leading zero omitted, Abs format (unit mm)*
G04 Created by KiCad (PCBNEW 8.0.6) date 2024-11-08 16:37:23*
%MOMM*%
%LPD*%
G01*
G04 APERTURE LIST*
%ADD10C,0.175000*%
G04 APERTURE END LIST*
D10*
X145329416Y-113578293D02*
X145519892Y-113044959D01*
X145519892Y-113044959D02*
X145710369Y-113578293D01*
X146319893Y-113083055D02*
X146243702Y-113044959D01*
X146243702Y-113044959D02*
X146091321Y-113044959D01*
X146091321Y-113044959D02*
X146015131Y-113083055D01*
X146015131Y-113083055D02*
X145977035Y-113159245D01*
X145977035Y-113159245D02*
X145977035Y-113464007D01*
X145977035Y-113464007D02*
X146015131Y-113540197D01*
X146015131Y-113540197D02*
X146091321Y-113578293D01*
X146091321Y-113578293D02*
X146243702Y-113578293D01*
X146243702Y-113578293D02*
X146319893Y-113540197D01*
X146319893Y-113540197D02*
X146357988Y-113464007D01*
X146357988Y-113464007D02*
X146357988Y-113387816D01*
X146357988Y-113387816D02*
X145977035Y-113311626D01*
X146700845Y-113044959D02*
X146700845Y-113578293D01*
X146700845Y-113425912D02*
X146738940Y-113502102D01*
X146738940Y-113502102D02*
X146777035Y-113540197D01*
X146777035Y-113540197D02*
X146853226Y-113578293D01*
X146853226Y-113578293D02*
X146929416Y-113578293D01*
X147157987Y-113083055D02*
X147234178Y-113044959D01*
X147234178Y-113044959D02*
X147386559Y-113044959D01*
X147386559Y-113044959D02*
X147462749Y-113083055D01*
X147462749Y-113083055D02*
X147500845Y-113159245D01*
X147500845Y-113159245D02*
X147500845Y-113197340D01*
X147500845Y-113197340D02*
X147462749Y-113273531D01*
X147462749Y-113273531D02*
X147386559Y-113311626D01*
X147386559Y-113311626D02*
X147272273Y-113311626D01*
X147272273Y-113311626D02*
X147196083Y-113349721D01*
X147196083Y-113349721D02*
X147157987Y-113425912D01*
X147157987Y-113425912D02*
X147157987Y-113464007D01*
X147157987Y-113464007D02*
X147196083Y-113540197D01*
X147196083Y-113540197D02*
X147272273Y-113578293D01*
X147272273Y-113578293D02*
X147386559Y-113578293D01*
X147386559Y-113578293D02*
X147462749Y-113540197D01*
X147843702Y-113044959D02*
X147843702Y-113578293D01*
X147843702Y-113844959D02*
X147805606Y-113806864D01*
X147805606Y-113806864D02*
X147843702Y-113768769D01*
X147843702Y-113768769D02*
X147881797Y-113806864D01*
X147881797Y-113806864D02*
X147843702Y-113844959D01*
X147843702Y-113844959D02*
X147843702Y-113768769D01*
X148338939Y-113044959D02*
X148262749Y-113083055D01*
X148262749Y-113083055D02*
X148224654Y-113121150D01*
X148224654Y-113121150D02*
X148186558Y-113197340D01*
X148186558Y-113197340D02*
X148186558Y-113425912D01*
X148186558Y-113425912D02*
X148224654Y-113502102D01*
X148224654Y-113502102D02*
X148262749Y-113540197D01*
X148262749Y-113540197D02*
X148338939Y-113578293D01*
X148338939Y-113578293D02*
X148453225Y-113578293D01*
X148453225Y-113578293D02*
X148529416Y-113540197D01*
X148529416Y-113540197D02*
X148567511Y-113502102D01*
X148567511Y-113502102D02*
X148605606Y-113425912D01*
X148605606Y-113425912D02*
X148605606Y-113197340D01*
X148605606Y-113197340D02*
X148567511Y-113121150D01*
X148567511Y-113121150D02*
X148529416Y-113083055D01*
X148529416Y-113083055D02*
X148453225Y-113044959D01*
X148453225Y-113044959D02*
X148338939Y-113044959D01*
X148948464Y-113578293D02*
X148948464Y-113044959D01*
X148948464Y-113502102D02*
X148986559Y-113540197D01*
X148986559Y-113540197D02*
X149062749Y-113578293D01*
X149062749Y-113578293D02*
X149177035Y-113578293D01*
X149177035Y-113578293D02*
X149253226Y-113540197D01*
X149253226Y-113540197D02*
X149291321Y-113464007D01*
X149291321Y-113464007D02*
X149291321Y-113044959D01*
X150700845Y-113044959D02*
X150243702Y-113044959D01*
X150472274Y-113044959D02*
X150472274Y-113844959D01*
X150472274Y-113844959D02*
X150396083Y-113730674D01*
X150396083Y-113730674D02*
X150319893Y-113654483D01*
X150319893Y-113654483D02*
X150243702Y-113616388D01*
X151043703Y-113121150D02*
X151081798Y-113083055D01*
X151081798Y-113083055D02*
X151043703Y-113044959D01*
X151043703Y-113044959D02*
X151005607Y-113083055D01*
X151005607Y-113083055D02*
X151043703Y-113121150D01*
X151043703Y-113121150D02*
X151043703Y-113044959D01*
X151577036Y-113844959D02*
X151653226Y-113844959D01*
X151653226Y-113844959D02*
X151729417Y-113806864D01*
X151729417Y-113806864D02*
X151767512Y-113768769D01*
X151767512Y-113768769D02*
X151805607Y-113692578D01*
X151805607Y-113692578D02*
X151843702Y-113540197D01*
X151843702Y-113540197D02*
X151843702Y-113349721D01*
X151843702Y-113349721D02*
X151805607Y-113197340D01*
X151805607Y-113197340D02*
X151767512Y-113121150D01*
X151767512Y-113121150D02*
X151729417Y-113083055D01*
X151729417Y-113083055D02*
X151653226Y-113044959D01*
X151653226Y-113044959D02*
X151577036Y-113044959D01*
X151577036Y-113044959D02*
X151500845Y-113083055D01*
X151500845Y-113083055D02*
X151462750Y-113121150D01*
X151462750Y-113121150D02*
X151424655Y-113197340D01*
X151424655Y-113197340D02*
X151386559Y-113349721D01*
X151386559Y-113349721D02*
X151386559Y-113540197D01*
X151386559Y-113540197D02*
X151424655Y-113692578D01*
X151424655Y-113692578D02*
X151462750Y-113768769D01*
X151462750Y-113768769D02*
X151500845Y-113806864D01*
X151500845Y-113806864D02*
X151577036Y-113844959D01*
X146777036Y-112557004D02*
X146853226Y-112557004D01*
X146853226Y-112557004D02*
X146929417Y-112518909D01*
X146929417Y-112518909D02*
X146967512Y-112480814D01*
X146967512Y-112480814D02*
X147005607Y-112404623D01*
X147005607Y-112404623D02*
X147043702Y-112252242D01*
X147043702Y-112252242D02*
X147043702Y-112061766D01*
X147043702Y-112061766D02*
X147005607Y-111909385D01*
X147005607Y-111909385D02*
X146967512Y-111833195D01*
X146967512Y-111833195D02*
X146929417Y-111795100D01*
X146929417Y-111795100D02*
X146853226Y-111757004D01*
X146853226Y-111757004D02*
X146777036Y-111757004D01*
X146777036Y-111757004D02*
X146700845Y-111795100D01*
X146700845Y-111795100D02*
X146662750Y-111833195D01*
X146662750Y-111833195D02*
X146624655Y-111909385D01*
X146624655Y-111909385D02*
X146586559Y-112061766D01*
X146586559Y-112061766D02*
X146586559Y-112252242D01*
X146586559Y-112252242D02*
X146624655Y-112404623D01*
X146624655Y-112404623D02*
X146662750Y-112480814D01*
X146662750Y-112480814D02*
X146700845Y-112518909D01*
X146700845Y-112518909D02*
X146777036Y-112557004D01*
X147310369Y-112557004D02*
X147805607Y-112557004D01*
X147805607Y-112557004D02*
X147538941Y-112252242D01*
X147538941Y-112252242D02*
X147653226Y-112252242D01*
X147653226Y-112252242D02*
X147729417Y-112214147D01*
X147729417Y-112214147D02*
X147767512Y-112176052D01*
X147767512Y-112176052D02*
X147805607Y-112099861D01*
X147805607Y-112099861D02*
X147805607Y-111909385D01*
X147805607Y-111909385D02*
X147767512Y-111833195D01*
X147767512Y-111833195D02*
X147729417Y-111795100D01*
X147729417Y-111795100D02*
X147653226Y-111757004D01*
X147653226Y-111757004D02*
X147424655Y-111757004D01*
X147424655Y-111757004D02*
X147348464Y-111795100D01*
X147348464Y-111795100D02*
X147310369Y-111833195D01*
X148719893Y-112595100D02*
X148034179Y-111566528D01*
X149405607Y-111757004D02*
X148948464Y-111757004D01*
X149177036Y-111757004D02*
X149177036Y-112557004D01*
X149177036Y-112557004D02*
X149100845Y-112442719D01*
X149100845Y-112442719D02*
X149024655Y-112366528D01*
X149024655Y-112366528D02*
X148948464Y-112328433D01*
X150167512Y-111757004D02*
X149710369Y-111757004D01*
X149938941Y-111757004D02*
X149938941Y-112557004D01*
X149938941Y-112557004D02*
X149862750Y-112442719D01*
X149862750Y-112442719D02*
X149786560Y-112366528D01*
X149786560Y-112366528D02*
X149710369Y-112328433D01*
M02*
