%TF.GenerationSoftware,KiCad,Pcbnew,8.0.6*%
%TF.CreationDate,2024-11-03T15:15:55+02:00*%
%TF.ProjectId,MiniBit,4d696e69-4269-4742-9e6b-696361645f70,1.0*%
%TF.SameCoordinates,Original*%
%TF.FileFunction,Legend,Top*%
%TF.FilePolarity,Positive*%
%FSLAX46Y46*%
G04 Gerber Fmt 4.6, Leading zero omitted, Abs format (unit mm)*
G04 Created by KiCad (PCBNEW 8.0.6) date 2024-11-03 15:15:55*
%MOMM*%
%LPD*%
G01*
G04 APERTURE LIST*
%ADD10C,0.200000*%
%ADD11C,0.100000*%
%ADD12C,0.120000*%
G04 APERTURE END LIST*
D10*
X130269673Y-98767219D02*
X130269673Y-97767219D01*
X130698244Y-97862457D02*
X130745863Y-97814838D01*
X130745863Y-97814838D02*
X130841101Y-97767219D01*
X130841101Y-97767219D02*
X131079196Y-97767219D01*
X131079196Y-97767219D02*
X131174434Y-97814838D01*
X131174434Y-97814838D02*
X131222053Y-97862457D01*
X131222053Y-97862457D02*
X131269672Y-97957695D01*
X131269672Y-97957695D02*
X131269672Y-98052933D01*
X131269672Y-98052933D02*
X131222053Y-98195790D01*
X131222053Y-98195790D02*
X130650625Y-98767219D01*
X130650625Y-98767219D02*
X131269672Y-98767219D01*
X132269672Y-98671980D02*
X132222053Y-98719600D01*
X132222053Y-98719600D02*
X132079196Y-98767219D01*
X132079196Y-98767219D02*
X131983958Y-98767219D01*
X131983958Y-98767219D02*
X131841101Y-98719600D01*
X131841101Y-98719600D02*
X131745863Y-98624361D01*
X131745863Y-98624361D02*
X131698244Y-98529123D01*
X131698244Y-98529123D02*
X131650625Y-98338647D01*
X131650625Y-98338647D02*
X131650625Y-98195790D01*
X131650625Y-98195790D02*
X131698244Y-98005314D01*
X131698244Y-98005314D02*
X131745863Y-97910076D01*
X131745863Y-97910076D02*
X131841101Y-97814838D01*
X131841101Y-97814838D02*
X131983958Y-97767219D01*
X131983958Y-97767219D02*
X132079196Y-97767219D01*
X132079196Y-97767219D02*
X132222053Y-97814838D01*
X132222053Y-97814838D02*
X132269672Y-97862457D01*
X133369673Y-108686266D02*
X134131578Y-108686266D01*
X130193482Y-84414838D02*
X130098244Y-84367219D01*
X130098244Y-84367219D02*
X129955387Y-84367219D01*
X129955387Y-84367219D02*
X129812530Y-84414838D01*
X129812530Y-84414838D02*
X129717292Y-84510076D01*
X129717292Y-84510076D02*
X129669673Y-84605314D01*
X129669673Y-84605314D02*
X129622054Y-84795790D01*
X129622054Y-84795790D02*
X129622054Y-84938647D01*
X129622054Y-84938647D02*
X129669673Y-85129123D01*
X129669673Y-85129123D02*
X129717292Y-85224361D01*
X129717292Y-85224361D02*
X129812530Y-85319600D01*
X129812530Y-85319600D02*
X129955387Y-85367219D01*
X129955387Y-85367219D02*
X130050625Y-85367219D01*
X130050625Y-85367219D02*
X130193482Y-85319600D01*
X130193482Y-85319600D02*
X130241101Y-85271980D01*
X130241101Y-85271980D02*
X130241101Y-84938647D01*
X130241101Y-84938647D02*
X130050625Y-84938647D01*
X130669673Y-85367219D02*
X130669673Y-84367219D01*
X130669673Y-84367219D02*
X131050625Y-84367219D01*
X131050625Y-84367219D02*
X131145863Y-84414838D01*
X131145863Y-84414838D02*
X131193482Y-84462457D01*
X131193482Y-84462457D02*
X131241101Y-84557695D01*
X131241101Y-84557695D02*
X131241101Y-84700552D01*
X131241101Y-84700552D02*
X131193482Y-84795790D01*
X131193482Y-84795790D02*
X131145863Y-84843409D01*
X131145863Y-84843409D02*
X131050625Y-84891028D01*
X131050625Y-84891028D02*
X130669673Y-84891028D01*
X131669673Y-85367219D02*
X131669673Y-84367219D01*
X132336339Y-84367219D02*
X132526815Y-84367219D01*
X132526815Y-84367219D02*
X132622053Y-84414838D01*
X132622053Y-84414838D02*
X132717291Y-84510076D01*
X132717291Y-84510076D02*
X132764910Y-84700552D01*
X132764910Y-84700552D02*
X132764910Y-85033885D01*
X132764910Y-85033885D02*
X132717291Y-85224361D01*
X132717291Y-85224361D02*
X132622053Y-85319600D01*
X132622053Y-85319600D02*
X132526815Y-85367219D01*
X132526815Y-85367219D02*
X132336339Y-85367219D01*
X132336339Y-85367219D02*
X132241101Y-85319600D01*
X132241101Y-85319600D02*
X132145863Y-85224361D01*
X132145863Y-85224361D02*
X132098244Y-85033885D01*
X132098244Y-85033885D02*
X132098244Y-84700552D01*
X132098244Y-84700552D02*
X132145863Y-84510076D01*
X132145863Y-84510076D02*
X132241101Y-84414838D01*
X132241101Y-84414838D02*
X132336339Y-84367219D01*
X161969673Y-87586266D02*
X162731578Y-87586266D01*
X162350625Y-87967219D02*
X162350625Y-87205314D01*
X133369673Y-87586266D02*
X134131578Y-87586266D01*
X133750625Y-87967219D02*
X133750625Y-87205314D01*
X133369673Y-100986266D02*
X134131578Y-100986266D01*
X133750625Y-101367219D02*
X133750625Y-100605314D01*
X154963720Y-113967219D02*
X155088720Y-112967219D01*
X155088720Y-112967219D02*
X155332768Y-113681504D01*
X155332768Y-113681504D02*
X155755387Y-112967219D01*
X155755387Y-112967219D02*
X155630387Y-113967219D01*
X156106577Y-113967219D02*
X156189911Y-113300552D01*
X156231577Y-112967219D02*
X156178006Y-113014838D01*
X156178006Y-113014838D02*
X156219673Y-113062457D01*
X156219673Y-113062457D02*
X156273244Y-113014838D01*
X156273244Y-113014838D02*
X156231577Y-112967219D01*
X156231577Y-112967219D02*
X156219673Y-113062457D01*
X156666101Y-113300552D02*
X156582767Y-113967219D01*
X156654196Y-113395790D02*
X156707767Y-113348171D01*
X156707767Y-113348171D02*
X156808958Y-113300552D01*
X156808958Y-113300552D02*
X156951815Y-113300552D01*
X156951815Y-113300552D02*
X157041101Y-113348171D01*
X157041101Y-113348171D02*
X157076815Y-113443409D01*
X157076815Y-113443409D02*
X157011339Y-113967219D01*
X157487529Y-113967219D02*
X157570863Y-113300552D01*
X157612529Y-112967219D02*
X157558958Y-113014838D01*
X157558958Y-113014838D02*
X157600625Y-113062457D01*
X157600625Y-113062457D02*
X157654196Y-113014838D01*
X157654196Y-113014838D02*
X157612529Y-112967219D01*
X157612529Y-112967219D02*
X157600625Y-113062457D01*
X158362529Y-113443409D02*
X158499434Y-113491028D01*
X158499434Y-113491028D02*
X158541100Y-113538647D01*
X158541100Y-113538647D02*
X158576815Y-113633885D01*
X158576815Y-113633885D02*
X158558957Y-113776742D01*
X158558957Y-113776742D02*
X158499434Y-113871980D01*
X158499434Y-113871980D02*
X158445862Y-113919600D01*
X158445862Y-113919600D02*
X158344672Y-113967219D01*
X158344672Y-113967219D02*
X157963719Y-113967219D01*
X157963719Y-113967219D02*
X158088719Y-112967219D01*
X158088719Y-112967219D02*
X158422053Y-112967219D01*
X158422053Y-112967219D02*
X158511338Y-113014838D01*
X158511338Y-113014838D02*
X158553005Y-113062457D01*
X158553005Y-113062457D02*
X158588719Y-113157695D01*
X158588719Y-113157695D02*
X158576815Y-113252933D01*
X158576815Y-113252933D02*
X158517291Y-113348171D01*
X158517291Y-113348171D02*
X158463719Y-113395790D01*
X158463719Y-113395790D02*
X158362529Y-113443409D01*
X158362529Y-113443409D02*
X158029196Y-113443409D01*
X158963719Y-113967219D02*
X159047053Y-113300552D01*
X159088719Y-112967219D02*
X159035148Y-113014838D01*
X159035148Y-113014838D02*
X159076815Y-113062457D01*
X159076815Y-113062457D02*
X159130386Y-113014838D01*
X159130386Y-113014838D02*
X159088719Y-112967219D01*
X159088719Y-112967219D02*
X159076815Y-113062457D01*
X159380386Y-113300552D02*
X159761338Y-113300552D01*
X159564909Y-112967219D02*
X159457767Y-113824361D01*
X159457767Y-113824361D02*
X159493481Y-113919600D01*
X159493481Y-113919600D02*
X159582767Y-113967219D01*
X159582767Y-113967219D02*
X159678005Y-113967219D01*
X163655387Y-97867219D02*
X163655387Y-98581504D01*
X163655387Y-98581504D02*
X163607768Y-98724361D01*
X163607768Y-98724361D02*
X163512530Y-98819600D01*
X163512530Y-98819600D02*
X163369673Y-98867219D01*
X163369673Y-98867219D02*
X163274435Y-98867219D01*
X163988721Y-97867219D02*
X164560149Y-97867219D01*
X164274435Y-98867219D02*
X164274435Y-97867219D01*
X164845864Y-98581504D02*
X165322054Y-98581504D01*
X164750626Y-98867219D02*
X165083959Y-97867219D01*
X165083959Y-97867219D02*
X165417292Y-98867219D01*
X166274435Y-97914838D02*
X166179197Y-97867219D01*
X166179197Y-97867219D02*
X166036340Y-97867219D01*
X166036340Y-97867219D02*
X165893483Y-97914838D01*
X165893483Y-97914838D02*
X165798245Y-98010076D01*
X165798245Y-98010076D02*
X165750626Y-98105314D01*
X165750626Y-98105314D02*
X165703007Y-98295790D01*
X165703007Y-98295790D02*
X165703007Y-98438647D01*
X165703007Y-98438647D02*
X165750626Y-98629123D01*
X165750626Y-98629123D02*
X165798245Y-98724361D01*
X165798245Y-98724361D02*
X165893483Y-98819600D01*
X165893483Y-98819600D02*
X166036340Y-98867219D01*
X166036340Y-98867219D02*
X166131578Y-98867219D01*
X166131578Y-98867219D02*
X166274435Y-98819600D01*
X166274435Y-98819600D02*
X166322054Y-98771980D01*
X166322054Y-98771980D02*
X166322054Y-98438647D01*
X166322054Y-98438647D02*
X166131578Y-98438647D01*
X163269673Y-84367219D02*
X163269673Y-85176742D01*
X163269673Y-85176742D02*
X163317292Y-85271980D01*
X163317292Y-85271980D02*
X163364911Y-85319600D01*
X163364911Y-85319600D02*
X163460149Y-85367219D01*
X163460149Y-85367219D02*
X163650625Y-85367219D01*
X163650625Y-85367219D02*
X163745863Y-85319600D01*
X163745863Y-85319600D02*
X163793482Y-85271980D01*
X163793482Y-85271980D02*
X163841101Y-85176742D01*
X163841101Y-85176742D02*
X163841101Y-84367219D01*
X164269673Y-85081504D02*
X164745863Y-85081504D01*
X164174435Y-85367219D02*
X164507768Y-84367219D01*
X164507768Y-84367219D02*
X164841101Y-85367219D01*
X165745863Y-85367219D02*
X165412530Y-84891028D01*
X165174435Y-85367219D02*
X165174435Y-84367219D01*
X165174435Y-84367219D02*
X165555387Y-84367219D01*
X165555387Y-84367219D02*
X165650625Y-84414838D01*
X165650625Y-84414838D02*
X165698244Y-84462457D01*
X165698244Y-84462457D02*
X165745863Y-84557695D01*
X165745863Y-84557695D02*
X165745863Y-84700552D01*
X165745863Y-84700552D02*
X165698244Y-84795790D01*
X165698244Y-84795790D02*
X165650625Y-84843409D01*
X165650625Y-84843409D02*
X165555387Y-84891028D01*
X165555387Y-84891028D02*
X165174435Y-84891028D01*
X166031578Y-84367219D02*
X166603006Y-84367219D01*
X166317292Y-85367219D02*
X166317292Y-84367219D01*
D11*
X154858646Y-114845847D02*
X154908646Y-114445847D01*
X154908646Y-114445847D02*
X155003884Y-114445847D01*
X155003884Y-114445847D02*
X155058646Y-114464895D01*
X155058646Y-114464895D02*
X155091979Y-114502990D01*
X155091979Y-114502990D02*
X155106265Y-114541085D01*
X155106265Y-114541085D02*
X155115789Y-114617276D01*
X155115789Y-114617276D02*
X155108646Y-114674419D01*
X155108646Y-114674419D02*
X155080074Y-114750609D01*
X155080074Y-114750609D02*
X155056265Y-114788704D01*
X155056265Y-114788704D02*
X155013408Y-114826800D01*
X155013408Y-114826800D02*
X154953884Y-114845847D01*
X154953884Y-114845847D02*
X154858646Y-114845847D01*
X155413408Y-114826800D02*
X155372931Y-114845847D01*
X155372931Y-114845847D02*
X155296741Y-114845847D01*
X155296741Y-114845847D02*
X155261027Y-114826800D01*
X155261027Y-114826800D02*
X155246741Y-114788704D01*
X155246741Y-114788704D02*
X155265789Y-114636323D01*
X155265789Y-114636323D02*
X155289598Y-114598228D01*
X155289598Y-114598228D02*
X155330074Y-114579180D01*
X155330074Y-114579180D02*
X155406265Y-114579180D01*
X155406265Y-114579180D02*
X155441979Y-114598228D01*
X155441979Y-114598228D02*
X155456265Y-114636323D01*
X155456265Y-114636323D02*
X155451503Y-114674419D01*
X155451503Y-114674419D02*
X155256265Y-114712514D01*
X155584836Y-114826800D02*
X155620550Y-114845847D01*
X155620550Y-114845847D02*
X155696741Y-114845847D01*
X155696741Y-114845847D02*
X155737217Y-114826800D01*
X155737217Y-114826800D02*
X155761026Y-114788704D01*
X155761026Y-114788704D02*
X155763407Y-114769657D01*
X155763407Y-114769657D02*
X155749122Y-114731561D01*
X155749122Y-114731561D02*
X155713407Y-114712514D01*
X155713407Y-114712514D02*
X155656265Y-114712514D01*
X155656265Y-114712514D02*
X155620550Y-114693466D01*
X155620550Y-114693466D02*
X155606265Y-114655371D01*
X155606265Y-114655371D02*
X155608646Y-114636323D01*
X155608646Y-114636323D02*
X155632455Y-114598228D01*
X155632455Y-114598228D02*
X155672931Y-114579180D01*
X155672931Y-114579180D02*
X155730074Y-114579180D01*
X155730074Y-114579180D02*
X155765788Y-114598228D01*
X155925313Y-114845847D02*
X155958646Y-114579180D01*
X155975313Y-114445847D02*
X155953884Y-114464895D01*
X155953884Y-114464895D02*
X155970551Y-114483942D01*
X155970551Y-114483942D02*
X155991979Y-114464895D01*
X155991979Y-114464895D02*
X155975313Y-114445847D01*
X155975313Y-114445847D02*
X155970551Y-114483942D01*
X156320551Y-114579180D02*
X156280074Y-114902990D01*
X156280074Y-114902990D02*
X156256265Y-114941085D01*
X156256265Y-114941085D02*
X156234836Y-114960133D01*
X156234836Y-114960133D02*
X156194360Y-114979180D01*
X156194360Y-114979180D02*
X156137217Y-114979180D01*
X156137217Y-114979180D02*
X156101503Y-114960133D01*
X156289598Y-114826800D02*
X156249122Y-114845847D01*
X156249122Y-114845847D02*
X156172932Y-114845847D01*
X156172932Y-114845847D02*
X156137217Y-114826800D01*
X156137217Y-114826800D02*
X156120551Y-114807752D01*
X156120551Y-114807752D02*
X156106265Y-114769657D01*
X156106265Y-114769657D02*
X156120551Y-114655371D01*
X156120551Y-114655371D02*
X156144360Y-114617276D01*
X156144360Y-114617276D02*
X156165789Y-114598228D01*
X156165789Y-114598228D02*
X156206265Y-114579180D01*
X156206265Y-114579180D02*
X156282455Y-114579180D01*
X156282455Y-114579180D02*
X156318170Y-114598228D01*
X156511027Y-114579180D02*
X156477694Y-114845847D01*
X156506265Y-114617276D02*
X156527694Y-114598228D01*
X156527694Y-114598228D02*
X156568170Y-114579180D01*
X156568170Y-114579180D02*
X156625313Y-114579180D01*
X156625313Y-114579180D02*
X156661027Y-114598228D01*
X156661027Y-114598228D02*
X156675313Y-114636323D01*
X156675313Y-114636323D02*
X156649122Y-114845847D01*
X156994361Y-114826800D02*
X156953884Y-114845847D01*
X156953884Y-114845847D02*
X156877694Y-114845847D01*
X156877694Y-114845847D02*
X156841980Y-114826800D01*
X156841980Y-114826800D02*
X156827694Y-114788704D01*
X156827694Y-114788704D02*
X156846742Y-114636323D01*
X156846742Y-114636323D02*
X156870551Y-114598228D01*
X156870551Y-114598228D02*
X156911027Y-114579180D01*
X156911027Y-114579180D02*
X156987218Y-114579180D01*
X156987218Y-114579180D02*
X157022932Y-114598228D01*
X157022932Y-114598228D02*
X157037218Y-114636323D01*
X157037218Y-114636323D02*
X157032456Y-114674419D01*
X157032456Y-114674419D02*
X156837218Y-114712514D01*
X157353884Y-114845847D02*
X157403884Y-114445847D01*
X157356265Y-114826800D02*
X157315789Y-114845847D01*
X157315789Y-114845847D02*
X157239599Y-114845847D01*
X157239599Y-114845847D02*
X157203884Y-114826800D01*
X157203884Y-114826800D02*
X157187218Y-114807752D01*
X157187218Y-114807752D02*
X157172932Y-114769657D01*
X157172932Y-114769657D02*
X157187218Y-114655371D01*
X157187218Y-114655371D02*
X157211027Y-114617276D01*
X157211027Y-114617276D02*
X157232456Y-114598228D01*
X157232456Y-114598228D02*
X157272932Y-114579180D01*
X157272932Y-114579180D02*
X157349122Y-114579180D01*
X157349122Y-114579180D02*
X157384837Y-114598228D01*
X157849123Y-114845847D02*
X157899123Y-114445847D01*
X157880075Y-114598228D02*
X157920551Y-114579180D01*
X157920551Y-114579180D02*
X157996742Y-114579180D01*
X157996742Y-114579180D02*
X158032456Y-114598228D01*
X158032456Y-114598228D02*
X158049123Y-114617276D01*
X158049123Y-114617276D02*
X158063408Y-114655371D01*
X158063408Y-114655371D02*
X158049123Y-114769657D01*
X158049123Y-114769657D02*
X158025313Y-114807752D01*
X158025313Y-114807752D02*
X158003885Y-114826800D01*
X158003885Y-114826800D02*
X157963408Y-114845847D01*
X157963408Y-114845847D02*
X157887218Y-114845847D01*
X157887218Y-114845847D02*
X157851504Y-114826800D01*
X158206266Y-114579180D02*
X158268171Y-114845847D01*
X158396742Y-114579180D02*
X158268171Y-114845847D01*
X158268171Y-114845847D02*
X158218171Y-114941085D01*
X158218171Y-114941085D02*
X158196742Y-114960133D01*
X158196742Y-114960133D02*
X158156266Y-114979180D01*
X158820552Y-114845847D02*
X158870552Y-114445847D01*
X158870552Y-114445847D02*
X159049123Y-114845847D01*
X159049123Y-114845847D02*
X159099123Y-114445847D01*
X159239600Y-114845847D02*
X159272933Y-114579180D01*
X159289600Y-114445847D02*
X159268171Y-114464895D01*
X159268171Y-114464895D02*
X159284838Y-114483942D01*
X159284838Y-114483942D02*
X159306266Y-114464895D01*
X159306266Y-114464895D02*
X159289600Y-114445847D01*
X159289600Y-114445847D02*
X159284838Y-114483942D01*
X159430076Y-114845847D02*
X159480076Y-114445847D01*
X159487219Y-114693466D02*
X159582457Y-114845847D01*
X159615790Y-114579180D02*
X159444361Y-114731561D01*
X159811029Y-114845847D02*
X159775314Y-114826800D01*
X159775314Y-114826800D02*
X159758648Y-114807752D01*
X159758648Y-114807752D02*
X159744362Y-114769657D01*
X159744362Y-114769657D02*
X159758648Y-114655371D01*
X159758648Y-114655371D02*
X159782457Y-114617276D01*
X159782457Y-114617276D02*
X159803886Y-114598228D01*
X159803886Y-114598228D02*
X159844362Y-114579180D01*
X159844362Y-114579180D02*
X159901505Y-114579180D01*
X159901505Y-114579180D02*
X159937219Y-114598228D01*
X159937219Y-114598228D02*
X159953886Y-114617276D01*
X159953886Y-114617276D02*
X159968171Y-114655371D01*
X159968171Y-114655371D02*
X159953886Y-114769657D01*
X159953886Y-114769657D02*
X159930076Y-114807752D01*
X159930076Y-114807752D02*
X159908648Y-114826800D01*
X159908648Y-114826800D02*
X159868171Y-114845847D01*
X159868171Y-114845847D02*
X159811029Y-114845847D01*
X160172934Y-114845847D02*
X160137219Y-114826800D01*
X160137219Y-114826800D02*
X160122934Y-114788704D01*
X160122934Y-114788704D02*
X160165791Y-114445847D01*
X160496743Y-114845847D02*
X160522934Y-114636323D01*
X160522934Y-114636323D02*
X160508648Y-114598228D01*
X160508648Y-114598228D02*
X160472934Y-114579180D01*
X160472934Y-114579180D02*
X160396743Y-114579180D01*
X160396743Y-114579180D02*
X160356267Y-114598228D01*
X160499124Y-114826800D02*
X160458648Y-114845847D01*
X160458648Y-114845847D02*
X160363410Y-114845847D01*
X160363410Y-114845847D02*
X160327696Y-114826800D01*
X160327696Y-114826800D02*
X160313410Y-114788704D01*
X160313410Y-114788704D02*
X160318172Y-114750609D01*
X160318172Y-114750609D02*
X160341981Y-114712514D01*
X160341981Y-114712514D02*
X160382458Y-114693466D01*
X160382458Y-114693466D02*
X160477696Y-114693466D01*
X160477696Y-114693466D02*
X160518172Y-114674419D01*
X160744363Y-114845847D02*
X160708648Y-114826800D01*
X160708648Y-114826800D02*
X160691982Y-114807752D01*
X160691982Y-114807752D02*
X160677696Y-114769657D01*
X160677696Y-114769657D02*
X160691982Y-114655371D01*
X160691982Y-114655371D02*
X160715791Y-114617276D01*
X160715791Y-114617276D02*
X160737220Y-114598228D01*
X160737220Y-114598228D02*
X160777696Y-114579180D01*
X160777696Y-114579180D02*
X160834839Y-114579180D01*
X160834839Y-114579180D02*
X160870553Y-114598228D01*
X160870553Y-114598228D02*
X160887220Y-114617276D01*
X160887220Y-114617276D02*
X160901505Y-114655371D01*
X160901505Y-114655371D02*
X160887220Y-114769657D01*
X160887220Y-114769657D02*
X160863410Y-114807752D01*
X160863410Y-114807752D02*
X160841982Y-114826800D01*
X160841982Y-114826800D02*
X160801505Y-114845847D01*
X160801505Y-114845847D02*
X160744363Y-114845847D01*
X161032458Y-114826800D02*
X161068172Y-114845847D01*
X161068172Y-114845847D02*
X161144363Y-114845847D01*
X161144363Y-114845847D02*
X161184839Y-114826800D01*
X161184839Y-114826800D02*
X161208648Y-114788704D01*
X161208648Y-114788704D02*
X161211029Y-114769657D01*
X161211029Y-114769657D02*
X161196744Y-114731561D01*
X161196744Y-114731561D02*
X161161029Y-114712514D01*
X161161029Y-114712514D02*
X161103887Y-114712514D01*
X161103887Y-114712514D02*
X161068172Y-114693466D01*
X161068172Y-114693466D02*
X161053887Y-114655371D01*
X161053887Y-114655371D02*
X161056268Y-114636323D01*
X161056268Y-114636323D02*
X161080077Y-114598228D01*
X161080077Y-114598228D02*
X161120553Y-114579180D01*
X161120553Y-114579180D02*
X161177696Y-114579180D01*
X161177696Y-114579180D02*
X161213410Y-114598228D01*
X161677697Y-114845847D02*
X161727697Y-114445847D01*
X161851506Y-114826800D02*
X161887220Y-114845847D01*
X161887220Y-114845847D02*
X161963411Y-114845847D01*
X161963411Y-114845847D02*
X162003887Y-114826800D01*
X162003887Y-114826800D02*
X162027696Y-114788704D01*
X162027696Y-114788704D02*
X162030077Y-114769657D01*
X162030077Y-114769657D02*
X162015792Y-114731561D01*
X162015792Y-114731561D02*
X161980077Y-114712514D01*
X161980077Y-114712514D02*
X161922935Y-114712514D01*
X161922935Y-114712514D02*
X161887220Y-114693466D01*
X161887220Y-114693466D02*
X161872935Y-114655371D01*
X161872935Y-114655371D02*
X161875316Y-114636323D01*
X161875316Y-114636323D02*
X161899125Y-114598228D01*
X161899125Y-114598228D02*
X161939601Y-114579180D01*
X161939601Y-114579180D02*
X161996744Y-114579180D01*
X161996744Y-114579180D02*
X162032458Y-114598228D01*
X162363411Y-114845847D02*
X162389602Y-114636323D01*
X162389602Y-114636323D02*
X162375316Y-114598228D01*
X162375316Y-114598228D02*
X162339602Y-114579180D01*
X162339602Y-114579180D02*
X162263411Y-114579180D01*
X162263411Y-114579180D02*
X162222935Y-114598228D01*
X162365792Y-114826800D02*
X162325316Y-114845847D01*
X162325316Y-114845847D02*
X162230078Y-114845847D01*
X162230078Y-114845847D02*
X162194364Y-114826800D01*
X162194364Y-114826800D02*
X162180078Y-114788704D01*
X162180078Y-114788704D02*
X162184840Y-114750609D01*
X162184840Y-114750609D02*
X162208649Y-114712514D01*
X162208649Y-114712514D02*
X162249126Y-114693466D01*
X162249126Y-114693466D02*
X162344364Y-114693466D01*
X162344364Y-114693466D02*
X162384840Y-114674419D01*
X162725316Y-114845847D02*
X162751507Y-114636323D01*
X162751507Y-114636323D02*
X162737221Y-114598228D01*
X162737221Y-114598228D02*
X162701507Y-114579180D01*
X162701507Y-114579180D02*
X162625316Y-114579180D01*
X162625316Y-114579180D02*
X162584840Y-114598228D01*
X162727697Y-114826800D02*
X162687221Y-114845847D01*
X162687221Y-114845847D02*
X162591983Y-114845847D01*
X162591983Y-114845847D02*
X162556269Y-114826800D01*
X162556269Y-114826800D02*
X162541983Y-114788704D01*
X162541983Y-114788704D02*
X162546745Y-114750609D01*
X162546745Y-114750609D02*
X162570554Y-114712514D01*
X162570554Y-114712514D02*
X162611031Y-114693466D01*
X162611031Y-114693466D02*
X162706269Y-114693466D01*
X162706269Y-114693466D02*
X162746745Y-114674419D01*
X162915793Y-114845847D02*
X162965793Y-114445847D01*
X162972936Y-114693466D02*
X163068174Y-114845847D01*
X163101507Y-114579180D02*
X162930078Y-114731561D01*
X163703888Y-114636323D02*
X163758650Y-114655371D01*
X163758650Y-114655371D02*
X163775317Y-114674419D01*
X163775317Y-114674419D02*
X163789603Y-114712514D01*
X163789603Y-114712514D02*
X163782460Y-114769657D01*
X163782460Y-114769657D02*
X163758650Y-114807752D01*
X163758650Y-114807752D02*
X163737222Y-114826800D01*
X163737222Y-114826800D02*
X163696746Y-114845847D01*
X163696746Y-114845847D02*
X163544365Y-114845847D01*
X163544365Y-114845847D02*
X163594365Y-114445847D01*
X163594365Y-114445847D02*
X163727698Y-114445847D01*
X163727698Y-114445847D02*
X163763412Y-114464895D01*
X163763412Y-114464895D02*
X163780079Y-114483942D01*
X163780079Y-114483942D02*
X163794365Y-114522038D01*
X163794365Y-114522038D02*
X163789603Y-114560133D01*
X163789603Y-114560133D02*
X163765793Y-114598228D01*
X163765793Y-114598228D02*
X163744365Y-114617276D01*
X163744365Y-114617276D02*
X163703888Y-114636323D01*
X163703888Y-114636323D02*
X163570555Y-114636323D01*
X163944365Y-114845847D02*
X163977698Y-114579180D01*
X163994365Y-114445847D02*
X163972936Y-114464895D01*
X163972936Y-114464895D02*
X163989603Y-114483942D01*
X163989603Y-114483942D02*
X164011031Y-114464895D01*
X164011031Y-114464895D02*
X163994365Y-114445847D01*
X163994365Y-114445847D02*
X163989603Y-114483942D01*
X164111031Y-114579180D02*
X164263412Y-114579180D01*
X164184841Y-114445847D02*
X164141984Y-114788704D01*
X164141984Y-114788704D02*
X164156269Y-114826800D01*
X164156269Y-114826800D02*
X164191984Y-114845847D01*
X164191984Y-114845847D02*
X164230079Y-114845847D01*
X164346745Y-114826800D02*
X164382459Y-114845847D01*
X164382459Y-114845847D02*
X164458650Y-114845847D01*
X164458650Y-114845847D02*
X164499126Y-114826800D01*
X164499126Y-114826800D02*
X164522935Y-114788704D01*
X164522935Y-114788704D02*
X164525316Y-114769657D01*
X164525316Y-114769657D02*
X164511031Y-114731561D01*
X164511031Y-114731561D02*
X164475316Y-114712514D01*
X164475316Y-114712514D02*
X164418174Y-114712514D01*
X164418174Y-114712514D02*
X164382459Y-114693466D01*
X164382459Y-114693466D02*
X164368174Y-114655371D01*
X164368174Y-114655371D02*
X164370555Y-114636323D01*
X164370555Y-114636323D02*
X164394364Y-114598228D01*
X164394364Y-114598228D02*
X164434840Y-114579180D01*
X164434840Y-114579180D02*
X164491983Y-114579180D01*
X164491983Y-114579180D02*
X164527697Y-114598228D01*
X164687222Y-114845847D02*
X164720555Y-114579180D01*
X164737222Y-114445847D02*
X164715793Y-114464895D01*
X164715793Y-114464895D02*
X164732460Y-114483942D01*
X164732460Y-114483942D02*
X164753888Y-114464895D01*
X164753888Y-114464895D02*
X164737222Y-114445847D01*
X164737222Y-114445847D02*
X164732460Y-114483942D01*
X164877698Y-114845847D02*
X164927698Y-114445847D01*
X164934841Y-114693466D02*
X165030079Y-114845847D01*
X165063412Y-114579180D02*
X164891983Y-114731561D01*
X165372936Y-114845847D02*
X165399127Y-114636323D01*
X165399127Y-114636323D02*
X165384841Y-114598228D01*
X165384841Y-114598228D02*
X165349127Y-114579180D01*
X165349127Y-114579180D02*
X165272936Y-114579180D01*
X165272936Y-114579180D02*
X165232460Y-114598228D01*
X165375317Y-114826800D02*
X165334841Y-114845847D01*
X165334841Y-114845847D02*
X165239603Y-114845847D01*
X165239603Y-114845847D02*
X165203889Y-114826800D01*
X165203889Y-114826800D02*
X165189603Y-114788704D01*
X165189603Y-114788704D02*
X165194365Y-114750609D01*
X165194365Y-114750609D02*
X165218174Y-114712514D01*
X165218174Y-114712514D02*
X165258651Y-114693466D01*
X165258651Y-114693466D02*
X165353889Y-114693466D01*
X165353889Y-114693466D02*
X165394365Y-114674419D01*
X165546746Y-114826800D02*
X165582460Y-114845847D01*
X165582460Y-114845847D02*
X165658651Y-114845847D01*
X165658651Y-114845847D02*
X165699127Y-114826800D01*
X165699127Y-114826800D02*
X165722936Y-114788704D01*
X165722936Y-114788704D02*
X165725317Y-114769657D01*
X165725317Y-114769657D02*
X165711032Y-114731561D01*
X165711032Y-114731561D02*
X165675317Y-114712514D01*
X165675317Y-114712514D02*
X165618175Y-114712514D01*
X165618175Y-114712514D02*
X165582460Y-114693466D01*
X165582460Y-114693466D02*
X165568175Y-114655371D01*
X165568175Y-114655371D02*
X165570556Y-114636323D01*
X165570556Y-114636323D02*
X165594365Y-114598228D01*
X165594365Y-114598228D02*
X165634841Y-114579180D01*
X165634841Y-114579180D02*
X165691984Y-114579180D01*
X165691984Y-114579180D02*
X165727698Y-114598228D01*
D10*
X161969673Y-95286266D02*
X162731578Y-95286266D01*
X133469673Y-95186266D02*
X134231578Y-95186266D01*
D12*
%TO.C,SW2*%
X134850000Y-76406250D02*
X135150000Y-76406250D01*
X134850000Y-79706250D02*
X134850000Y-76406250D01*
X135150000Y-79706250D02*
X134850000Y-79706250D01*
X137350000Y-79706250D02*
X137650000Y-79706250D01*
X137650000Y-76406250D02*
X137350000Y-76406250D01*
X137650000Y-79706250D02*
X137650000Y-76406250D01*
%TO.C,C8*%
X149892164Y-91896250D02*
X150107836Y-91896250D01*
X149892164Y-92616250D02*
X150107836Y-92616250D01*
%TO.C,U2*%
X146690000Y-99006250D02*
X146690000Y-98206250D01*
X146690000Y-99006250D02*
X146690000Y-99806250D01*
X149810000Y-99006250D02*
X149810000Y-98206250D01*
X149810000Y-99006250D02*
X149810000Y-99806250D01*
X150090000Y-97946250D02*
X149760000Y-97706250D01*
X150090000Y-97466250D01*
X150090000Y-97946250D01*
G36*
X150090000Y-97946250D02*
G01*
X149760000Y-97706250D01*
X150090000Y-97466250D01*
X150090000Y-97946250D01*
G37*
%TO.C,SW1*%
X159100000Y-73606250D02*
X159400000Y-73606250D01*
X159100000Y-76906250D02*
X159100000Y-73606250D01*
X159400000Y-76906250D02*
X159100000Y-76906250D01*
X161600000Y-76906250D02*
X161900000Y-76906250D01*
X161900000Y-73606250D02*
X161600000Y-73606250D01*
X161900000Y-76906250D02*
X161900000Y-73606250D01*
%TO.C,J1*%
X129920000Y-99676250D02*
X131250000Y-99676250D01*
X129920000Y-101006250D02*
X129920000Y-99676250D01*
X129920000Y-102276250D02*
X129920000Y-109956250D01*
X129920000Y-102276250D02*
X132580000Y-102276250D01*
X129920000Y-109956250D02*
X132580000Y-109956250D01*
X132580000Y-102276250D02*
X132580000Y-109956250D01*
%TO.C,C6*%
X142642164Y-98146250D02*
X142857836Y-98146250D01*
X142642164Y-98866250D02*
X142857836Y-98866250D01*
%TO.C,R3*%
X146096359Y-105876250D02*
X146403641Y-105876250D01*
X146096359Y-106636250D02*
X146403641Y-106636250D01*
%TO.C,C4*%
X138640000Y-75628414D02*
X138640000Y-75844086D01*
X139360000Y-75628414D02*
X139360000Y-75844086D01*
%TO.C,J3*%
X163420000Y-99676250D02*
X164750000Y-99676250D01*
X163420000Y-101006250D02*
X163420000Y-99676250D01*
X163420000Y-102276250D02*
X163420000Y-109956250D01*
X163420000Y-102276250D02*
X166080000Y-102276250D01*
X163420000Y-109956250D02*
X166080000Y-109956250D01*
X166080000Y-102276250D02*
X166080000Y-109956250D01*
%TO.C,C3*%
X156640000Y-72128414D02*
X156640000Y-72344086D01*
X157360000Y-72128414D02*
X157360000Y-72344086D01*
%TO.C,C2*%
X136265000Y-73517502D02*
X136265000Y-72994998D01*
X137735000Y-73517502D02*
X137735000Y-72994998D01*
%TO.C,J4*%
X129920000Y-86176250D02*
X131250000Y-86176250D01*
X129920000Y-87506250D02*
X129920000Y-86176250D01*
X129920000Y-88776250D02*
X129920000Y-96456250D01*
X129920000Y-88776250D02*
X132580000Y-88776250D01*
X129920000Y-96456250D02*
X132580000Y-96456250D01*
X132580000Y-88776250D02*
X132580000Y-96456250D01*
%TO.C,C5*%
X142390000Y-105864086D02*
X142390000Y-105648414D01*
X143110000Y-105864086D02*
X143110000Y-105648414D01*
%TO.C,C1*%
X138640000Y-73384086D02*
X138640000Y-73168414D01*
X139360000Y-73384086D02*
X139360000Y-73168414D01*
%TO.C,R1*%
X159643641Y-71376250D02*
X159336359Y-71376250D01*
X159643641Y-72136250D02*
X159336359Y-72136250D01*
%TO.C,R8*%
X135227500Y-107243508D02*
X135227500Y-106768992D01*
X136272500Y-107243508D02*
X136272500Y-106768992D01*
%TO.C,R5*%
X146477500Y-87843992D02*
X146477500Y-88318508D01*
X147522500Y-87843992D02*
X147522500Y-88318508D01*
%TO.C,U3*%
X141190000Y-101393750D02*
X141190000Y-100593750D01*
X141190000Y-101393750D02*
X141190000Y-102193750D01*
X144310000Y-101393750D02*
X144310000Y-100593750D01*
X144310000Y-101393750D02*
X144310000Y-102193750D01*
X141240000Y-102693750D02*
X140910000Y-102933750D01*
X140910000Y-102453750D01*
X141240000Y-102693750D01*
G36*
X141240000Y-102693750D02*
G01*
X140910000Y-102933750D01*
X140910000Y-102453750D01*
X141240000Y-102693750D01*
G37*
%TO.C,C7*%
X146627836Y-91896250D02*
X146412164Y-91896250D01*
X146627836Y-92616250D02*
X146412164Y-92616250D01*
%TO.C,R7*%
X135227500Y-102443992D02*
X135227500Y-102918508D01*
X136272500Y-102443992D02*
X136272500Y-102918508D01*
%TO.C,U1*%
X139825000Y-64606250D02*
X139825000Y-67056250D01*
X139825000Y-64606250D02*
X142275000Y-64606250D01*
X140100000Y-64856250D02*
X155700000Y-64856250D01*
X140100000Y-85556250D02*
X140100000Y-64856250D01*
X155700000Y-64856250D02*
X155700000Y-85556250D01*
X155700000Y-85556250D02*
X140100000Y-85556250D01*
X139925000Y-71806250D02*
X139589000Y-72046250D01*
X139589000Y-71566250D01*
X139925000Y-71806250D01*
G36*
X139925000Y-71806250D02*
G01*
X139589000Y-72046250D01*
X139589000Y-71566250D01*
X139925000Y-71806250D01*
G37*
%TO.C,R4*%
X151653641Y-105876250D02*
X151346359Y-105876250D01*
X151653641Y-106636250D02*
X151346359Y-106636250D01*
%TO.C,D1*%
X141515000Y-92483750D02*
X141515000Y-94768750D01*
X142985000Y-92483750D02*
X141515000Y-92483750D01*
X142985000Y-94768750D02*
X142985000Y-92483750D01*
%TO.C,R2*%
X141727500Y-90243508D02*
X141727500Y-89768992D01*
X142772500Y-90243508D02*
X142772500Y-89768992D01*
%TO.C,J2*%
X163420000Y-86176250D02*
X164750000Y-86176250D01*
X163420000Y-87506250D02*
X163420000Y-86176250D01*
X163420000Y-88776250D02*
X163420000Y-96456250D01*
X163420000Y-88776250D02*
X166080000Y-88776250D01*
X163420000Y-96456250D02*
X166080000Y-96456250D01*
X166080000Y-88776250D02*
X166080000Y-96456250D01*
%TO.C,J5*%
X143830000Y-113256250D02*
X143830000Y-111556250D01*
X153170000Y-113256250D02*
X153170000Y-111556250D01*
%TO.C,R6*%
X148977500Y-87843992D02*
X148977500Y-88318508D01*
X150022500Y-87843992D02*
X150022500Y-88318508D01*
%TD*%
M02*
