%TF.GenerationSoftware,KiCad,Pcbnew,8.0.6*%
%TF.CreationDate,2024-11-08T16:37:23+02:00*%
%TF.ProjectId,MiniBit,4d696e69-4269-4742-9e6b-696361645f70,1.0*%
%TF.SameCoordinates,Original*%
%TF.FileFunction,Copper,L1,Top*%
%TF.FilePolarity,Positive*%
%FSLAX46Y46*%
G04 Gerber Fmt 4.6, Leading zero omitted, Abs format (unit mm)*
G04 Created by KiCad (PCBNEW 8.0.6) date 2024-11-08 16:37:23*
%MOMM*%
%LPD*%
G01*
G04 APERTURE LIST*
G04 Aperture macros list*
%AMRoundRect*
0 Rectangle with rounded corners*
0 $1 Rounding radius*
0 $2 $3 $4 $5 $6 $7 $8 $9 X,Y pos of 4 corners*
0 Add a 4 corners polygon primitive as box body*
4,1,4,$2,$3,$4,$5,$6,$7,$8,$9,$2,$3,0*
0 Add four circle primitives for the rounded corners*
1,1,$1+$1,$2,$3*
1,1,$1+$1,$4,$5*
1,1,$1+$1,$6,$7*
1,1,$1+$1,$8,$9*
0 Add four rect primitives between the rounded corners*
20,1,$1+$1,$2,$3,$4,$5,0*
20,1,$1+$1,$4,$5,$6,$7,0*
20,1,$1+$1,$6,$7,$8,$9,0*
20,1,$1+$1,$8,$9,$2,$3,0*%
%AMOutline5P*
0 Free polygon, 5 corners , with rotation*
0 The origin of the aperture is its center*
0 number of corners: always 5*
0 $1 to $10 corner X, Y*
0 $11 Rotation angle, in degrees counterclockwise*
0 create outline with 5 corners*
4,1,5,$1,$2,$3,$4,$5,$6,$7,$8,$9,$10,$1,$2,$11*%
%AMOutline6P*
0 Free polygon, 6 corners , with rotation*
0 The origin of the aperture is its center*
0 number of corners: always 6*
0 $1 to $12 corner X, Y*
0 $13 Rotation angle, in degrees counterclockwise*
0 create outline with 6 corners*
4,1,6,$1,$2,$3,$4,$5,$6,$7,$8,$9,$10,$11,$12,$1,$2,$13*%
%AMOutline7P*
0 Free polygon, 7 corners , with rotation*
0 The origin of the aperture is its center*
0 number of corners: always 7*
0 $1 to $14 corner X, Y*
0 $15 Rotation angle, in degrees counterclockwise*
0 create outline with 7 corners*
4,1,7,$1,$2,$3,$4,$5,$6,$7,$8,$9,$10,$11,$12,$13,$14,$1,$2,$15*%
%AMOutline8P*
0 Free polygon, 8 corners , with rotation*
0 The origin of the aperture is its center*
0 number of corners: always 8*
0 $1 to $16 corner X, Y*
0 $17 Rotation angle, in degrees counterclockwise*
0 create outline with 8 corners*
4,1,8,$1,$2,$3,$4,$5,$6,$7,$8,$9,$10,$11,$12,$13,$14,$15,$16,$1,$2,$17*%
G04 Aperture macros list end*
%TA.AperFunction,SMDPad,CuDef*%
%ADD10R,1.700000X0.900000*%
%TD*%
%TA.AperFunction,SMDPad,CuDef*%
%ADD11RoundRect,0.140000X-0.140000X-0.170000X0.140000X-0.170000X0.140000X0.170000X-0.140000X0.170000X0*%
%TD*%
%TA.AperFunction,SMDPad,CuDef*%
%ADD12RoundRect,0.150000X0.150000X-0.512500X0.150000X0.512500X-0.150000X0.512500X-0.150000X-0.512500X0*%
%TD*%
%TA.AperFunction,ComponentPad*%
%ADD13R,1.700000X1.700000*%
%TD*%
%TA.AperFunction,ComponentPad*%
%ADD14O,1.700000X1.700000*%
%TD*%
%TA.AperFunction,SMDPad,CuDef*%
%ADD15RoundRect,0.147500X0.172500X-0.147500X0.172500X0.147500X-0.172500X0.147500X-0.172500X-0.147500X0*%
%TD*%
%TA.AperFunction,SMDPad,CuDef*%
%ADD16RoundRect,0.135000X-0.135000X-0.185000X0.135000X-0.185000X0.135000X0.185000X-0.135000X0.185000X0*%
%TD*%
%TA.AperFunction,SMDPad,CuDef*%
%ADD17RoundRect,0.140000X-0.170000X0.140000X-0.170000X-0.140000X0.170000X-0.140000X0.170000X0.140000X0*%
%TD*%
%TA.AperFunction,SMDPad,CuDef*%
%ADD18RoundRect,0.250000X0.475000X-0.250000X0.475000X0.250000X-0.475000X0.250000X-0.475000X-0.250000X0*%
%TD*%
%TA.AperFunction,SMDPad,CuDef*%
%ADD19RoundRect,0.140000X0.170000X-0.140000X0.170000X0.140000X-0.170000X0.140000X-0.170000X-0.140000X0*%
%TD*%
%TA.AperFunction,SMDPad,CuDef*%
%ADD20RoundRect,0.135000X0.135000X0.185000X-0.135000X0.185000X-0.135000X-0.185000X0.135000X-0.185000X0*%
%TD*%
%TA.AperFunction,SMDPad,CuDef*%
%ADD21RoundRect,0.200000X0.275000X-0.200000X0.275000X0.200000X-0.275000X0.200000X-0.275000X-0.200000X0*%
%TD*%
%TA.AperFunction,SMDPad,CuDef*%
%ADD22RoundRect,0.200000X-0.275000X0.200000X-0.275000X-0.200000X0.275000X-0.200000X0.275000X0.200000X0*%
%TD*%
%TA.AperFunction,SMDPad,CuDef*%
%ADD23RoundRect,0.140000X0.140000X0.170000X-0.140000X0.170000X-0.140000X-0.170000X0.140000X-0.170000X0*%
%TD*%
%TA.AperFunction,SMDPad,CuDef*%
%ADD24R,0.800000X0.400000*%
%TD*%
%TA.AperFunction,SMDPad,CuDef*%
%ADD25R,0.400000X0.800000*%
%TD*%
%TA.AperFunction,SMDPad,CuDef*%
%ADD26Outline5P,-0.600000X0.204000X-0.204000X0.600000X0.600000X0.600000X0.600000X-0.600000X-0.600000X-0.600000X0.000000*%
%TD*%
%TA.AperFunction,SMDPad,CuDef*%
%ADD27R,1.200000X1.200000*%
%TD*%
%TA.AperFunction,SMDPad,CuDef*%
%ADD28R,0.800000X0.800000*%
%TD*%
%TA.AperFunction,SMDPad,CuDef*%
%ADD29RoundRect,0.218750X-0.256250X0.218750X-0.256250X-0.218750X0.256250X-0.218750X0.256250X0.218750X0*%
%TD*%
%TA.AperFunction,SMDPad,CuDef*%
%ADD30RoundRect,0.150000X-0.150000X-0.425000X0.150000X-0.425000X0.150000X0.425000X-0.150000X0.425000X0*%
%TD*%
%TA.AperFunction,SMDPad,CuDef*%
%ADD31RoundRect,0.075000X-0.075000X-0.500000X0.075000X-0.500000X0.075000X0.500000X-0.075000X0.500000X0*%
%TD*%
%TA.AperFunction,ComponentPad*%
%ADD32O,1.000000X2.100000*%
%TD*%
%TA.AperFunction,ComponentPad*%
%ADD33O,1.000000X1.800000*%
%TD*%
%TA.AperFunction,ViaPad*%
%ADD34C,0.700000*%
%TD*%
%TA.AperFunction,Conductor*%
%ADD35C,0.300000*%
%TD*%
%TA.AperFunction,Conductor*%
%ADD36C,0.200000*%
%TD*%
G04 APERTURE END LIST*
D10*
%TO.P,SW2,1,A*%
%TO.N,GND*%
X136250000Y-79756250D03*
%TO.P,SW2,2,B*%
%TO.N,BOOT*%
X136250000Y-76356250D03*
%TD*%
D11*
%TO.P,C8,1*%
%TO.N,USB_D+*%
X149520000Y-92256250D03*
%TO.P,C8,2*%
%TO.N,GND*%
X150480000Y-92256250D03*
%TD*%
D12*
%TO.P,U2,1,I/O1*%
%TO.N,D+*%
X147300000Y-100143750D03*
%TO.P,U2,2,GND*%
%TO.N,GND*%
X148250000Y-100143750D03*
%TO.P,U2,3,I/O2*%
%TO.N,D-*%
X149200000Y-100143750D03*
%TO.P,U2,4,I/O2*%
%TO.N,USB_D-*%
X149200000Y-97868750D03*
%TO.P,U2,5,VBUS*%
%TO.N,+5V*%
X148250000Y-97868750D03*
%TO.P,U2,6,I/O1*%
%TO.N,USB_D+*%
X147300000Y-97868750D03*
%TD*%
D10*
%TO.P,SW1,1,A*%
%TO.N,GND*%
X160500000Y-76956250D03*
%TO.P,SW1,2,B*%
%TO.N,RESET*%
X160500000Y-73556250D03*
%TD*%
D13*
%TO.P,J1,1,Pin_1*%
%TO.N,+3.3V*%
X131250000Y-101006250D03*
D14*
%TO.P,J1,2,Pin_2*%
%TO.N,SDA*%
X131250000Y-103546250D03*
%TO.P,J1,3,Pin_3*%
%TO.N,SCL*%
X131250000Y-106086250D03*
%TO.P,J1,4,Pin_4*%
%TO.N,GND*%
X131250000Y-108626250D03*
%TD*%
D15*
%TO.P,F1,1*%
%TO.N,VBUS*%
X144500000Y-106756250D03*
%TO.P,F1,2*%
%TO.N,+5V*%
X144500000Y-105786250D03*
%TD*%
D11*
%TO.P,C6,1*%
%TO.N,+3.3V*%
X142270000Y-98506250D03*
%TO.P,C6,2*%
%TO.N,GND*%
X143230000Y-98506250D03*
%TD*%
D16*
%TO.P,R3,1*%
%TO.N,GND*%
X145740000Y-106256250D03*
%TO.P,R3,2*%
%TO.N,Net-(J5-CC1)*%
X146760000Y-106256250D03*
%TD*%
D17*
%TO.P,C4,1*%
%TO.N,BOOT*%
X139000000Y-75256250D03*
%TO.P,C4,2*%
%TO.N,GND*%
X139000000Y-76216250D03*
%TD*%
D13*
%TO.P,J3,1,Pin_1*%
%TO.N,TCK*%
X164750000Y-101006250D03*
D14*
%TO.P,J3,2,Pin_2*%
%TO.N,TDO*%
X164750000Y-103546250D03*
%TO.P,J3,3,Pin_3*%
%TO.N,TDI*%
X164750000Y-106086250D03*
%TO.P,J3,4,Pin_4*%
%TO.N,TMS*%
X164750000Y-108626250D03*
%TD*%
D17*
%TO.P,C3,1*%
%TO.N,RESET*%
X157000000Y-71756250D03*
%TO.P,C3,2*%
%TO.N,GND*%
X157000000Y-72716250D03*
%TD*%
D18*
%TO.P,C2,1*%
%TO.N,+3.3V*%
X137000000Y-74206250D03*
%TO.P,C2,2*%
%TO.N,GND*%
X137000000Y-72306250D03*
%TD*%
D13*
%TO.P,J4,1,Pin_1*%
%TO.N,+3.3V*%
X131250000Y-87506250D03*
D14*
%TO.P,J4,2,Pin_2*%
%TO.N,IO4*%
X131250000Y-90046250D03*
%TO.P,J4,3,Pin_3*%
%TO.N,IO5*%
X131250000Y-92586250D03*
%TO.P,J4,4,Pin_4*%
%TO.N,GND*%
X131250000Y-95126250D03*
%TD*%
D19*
%TO.P,C5,1*%
%TO.N,VBUS*%
X142750000Y-106236250D03*
%TO.P,C5,2*%
%TO.N,GND*%
X142750000Y-105276250D03*
%TD*%
%TO.P,C1,1*%
%TO.N,+3.3V*%
X139000000Y-73756250D03*
%TO.P,C1,2*%
%TO.N,GND*%
X139000000Y-72796250D03*
%TD*%
D20*
%TO.P,R1,1*%
%TO.N,+3.3V*%
X160000000Y-71756250D03*
%TO.P,R1,2*%
%TO.N,RESET*%
X158980000Y-71756250D03*
%TD*%
D21*
%TO.P,R8,1*%
%TO.N,+3.3V*%
X135750000Y-107831250D03*
%TO.P,R8,2*%
%TO.N,SCL*%
X135750000Y-106181250D03*
%TD*%
D22*
%TO.P,R5,1*%
%TO.N,/USB_N*%
X147000000Y-87256250D03*
%TO.P,R5,2*%
%TO.N,USB_D-*%
X147000000Y-88906250D03*
%TD*%
D12*
%TO.P,U3,1,VIN*%
%TO.N,VBUS*%
X141800000Y-102531250D03*
%TO.P,U3,2,GND*%
%TO.N,GND*%
X142750000Y-102531250D03*
%TO.P,U3,3,EN*%
%TO.N,VBUS*%
X143700000Y-102531250D03*
%TO.P,U3,4,NC*%
%TO.N,unconnected-(U3-NC-Pad4)*%
X143700000Y-100256250D03*
%TO.P,U3,5,VOUT*%
%TO.N,+3.3V*%
X141800000Y-100256250D03*
%TD*%
D23*
%TO.P,C7,1*%
%TO.N,USB_D-*%
X147000000Y-92256250D03*
%TO.P,C7,2*%
%TO.N,GND*%
X146040000Y-92256250D03*
%TD*%
D22*
%TO.P,R7,1*%
%TO.N,+3.3V*%
X135750000Y-101856250D03*
%TO.P,R7,2*%
%TO.N,SDA*%
X135750000Y-103506250D03*
%TD*%
D24*
%TO.P,U1,1,GND*%
%TO.N,GND*%
X140900000Y-71806250D03*
%TO.P,U1,2,GND*%
X140900000Y-72656250D03*
%TO.P,U1,3,3V3*%
%TO.N,+3.3V*%
X140900000Y-73506250D03*
%TO.P,U1,4,IO0*%
%TO.N,BOOT*%
X140900000Y-74356250D03*
%TO.P,U1,5,IO1*%
%TO.N,unconnected-(U1-IO1-Pad5)*%
X140900000Y-75206250D03*
%TO.P,U1,6,IO2*%
%TO.N,unconnected-(U1-IO2-Pad6)*%
X140900000Y-76056250D03*
%TO.P,U1,7,IO3*%
%TO.N,unconnected-(U1-IO3-Pad7)*%
X140900000Y-76906250D03*
%TO.P,U1,8,IO4*%
%TO.N,IO4*%
X140900000Y-77756250D03*
%TO.P,U1,9,IO5*%
%TO.N,IO5*%
X140900000Y-78606250D03*
%TO.P,U1,10,IO6*%
%TO.N,unconnected-(U1-IO6-Pad10)*%
X140900000Y-79456250D03*
%TO.P,U1,11,IO7*%
%TO.N,unconnected-(U1-IO7-Pad11)*%
X140900000Y-80306250D03*
%TO.P,U1,12,IO8*%
%TO.N,SDA*%
X140900000Y-81156250D03*
%TO.P,U1,13,IO9*%
%TO.N,SCL*%
X140900000Y-82006250D03*
%TO.P,U1,14,IO10*%
%TO.N,unconnected-(U1-IO10-Pad14)*%
X140900000Y-82856250D03*
%TO.P,U1,15,IO11*%
%TO.N,unconnected-(U1-IO11-Pad15)*%
X140900000Y-83706250D03*
D25*
%TO.P,U1,16,IO12*%
%TO.N,unconnected-(U1-IO12-Pad16)*%
X141950000Y-84756250D03*
%TO.P,U1,17,IO13*%
%TO.N,unconnected-(U1-IO13-Pad17)*%
X142800000Y-84756250D03*
%TO.P,U1,18,IO14*%
%TO.N,unconnected-(U1-IO14-Pad18)*%
X143650000Y-84756250D03*
%TO.P,U1,19,IO15*%
%TO.N,unconnected-(U1-IO15-Pad19)*%
X144500000Y-84756250D03*
%TO.P,U1,20,IO16*%
%TO.N,unconnected-(U1-IO16-Pad20)*%
X145350000Y-84756250D03*
%TO.P,U1,21,IO17*%
%TO.N,unconnected-(U1-IO17-Pad21)*%
X146200000Y-84756250D03*
%TO.P,U1,22,IO18*%
%TO.N,unconnected-(U1-IO18-Pad22)*%
X147050000Y-84756250D03*
%TO.P,U1,23,IO19*%
%TO.N,/USB_N*%
X147900000Y-84756250D03*
%TO.P,U1,24,IO20*%
%TO.N,/USB_P*%
X148750000Y-84756250D03*
%TO.P,U1,25,IO21*%
%TO.N,unconnected-(U1-IO21-Pad25)*%
X149600000Y-84756250D03*
%TO.P,U1,26,IO26*%
%TO.N,unconnected-(U1-IO26-Pad26)*%
X150450000Y-84756250D03*
%TO.P,U1,27,IO47*%
%TO.N,unconnected-(U1-IO47-Pad27)*%
X151300000Y-84756250D03*
%TO.P,U1,28,IO33*%
%TO.N,unconnected-(U1-IO33-Pad28)*%
X152150000Y-84756250D03*
%TO.P,U1,29,IO34*%
%TO.N,unconnected-(U1-IO34-Pad29)*%
X153000000Y-84756250D03*
%TO.P,U1,30,IO48*%
%TO.N,unconnected-(U1-IO48-Pad30)*%
X153850000Y-84756250D03*
D24*
%TO.P,U1,31,IO35*%
%TO.N,unconnected-(U1-IO35-Pad31)*%
X154900000Y-83706250D03*
%TO.P,U1,32,IO36*%
%TO.N,unconnected-(U1-IO36-Pad32)*%
X154900000Y-82856250D03*
%TO.P,U1,33,IO37*%
%TO.N,unconnected-(U1-IO37-Pad33)*%
X154900000Y-82006250D03*
%TO.P,U1,34,IO38*%
%TO.N,unconnected-(U1-IO38-Pad34)*%
X154900000Y-81156250D03*
%TO.P,U1,35,IO39*%
%TO.N,TMS*%
X154900000Y-80306250D03*
%TO.P,U1,36,IO40*%
%TO.N,TDI*%
X154900000Y-79456250D03*
%TO.P,U1,37,IO41*%
%TO.N,TDO*%
X154900000Y-78606250D03*
%TO.P,U1,38,IO42*%
%TO.N,TCK*%
X154900000Y-77756250D03*
%TO.P,U1,39,TXD0*%
%TO.N,TX*%
X154900000Y-76906250D03*
%TO.P,U1,40,RXD0*%
%TO.N,RX*%
X154900000Y-76056250D03*
%TO.P,U1,41,IO45*%
%TO.N,unconnected-(U1-IO45-Pad41)*%
X154900000Y-75206250D03*
%TO.P,U1,42,GND*%
%TO.N,GND*%
X154900000Y-74356250D03*
%TO.P,U1,43,GND*%
X154900000Y-73506250D03*
%TO.P,U1,44,IO46*%
%TO.N,unconnected-(U1-IO46-Pad44)*%
X154900000Y-72656250D03*
%TO.P,U1,45,EN*%
%TO.N,RESET*%
X154900000Y-71806250D03*
D25*
%TO.P,U1,46,GND*%
%TO.N,GND*%
X153850000Y-70756250D03*
%TO.P,U1,47,GND*%
X153000000Y-70756250D03*
%TO.P,U1,48,GND*%
X152150000Y-70756250D03*
%TO.P,U1,49,GND*%
X151300000Y-70756250D03*
%TO.P,U1,50,GND*%
X150450000Y-70756250D03*
%TO.P,U1,51,GND*%
X149600000Y-70756250D03*
%TO.P,U1,52,GND*%
X148750000Y-70756250D03*
%TO.P,U1,53,GND*%
X147900000Y-70756250D03*
%TO.P,U1,54,GND*%
X147050000Y-70756250D03*
%TO.P,U1,55,GND*%
X146200000Y-70756250D03*
%TO.P,U1,56,GND*%
X145350000Y-70756250D03*
%TO.P,U1,57,GND*%
X144500000Y-70756250D03*
%TO.P,U1,58,GND*%
X143650000Y-70756250D03*
%TO.P,U1,59,GND*%
X142800000Y-70756250D03*
%TO.P,U1,60,GND*%
X141950000Y-70756250D03*
D26*
%TO.P,U1,61,GND*%
X146250000Y-76106250D03*
D27*
X146250000Y-77756250D03*
X146250000Y-79406250D03*
X147900000Y-76106250D03*
X147900000Y-77756250D03*
X147900000Y-79406250D03*
X149550000Y-76106250D03*
X149550000Y-77756250D03*
X149550000Y-79406250D03*
D28*
%TO.P,U1,62,GND*%
X140900000Y-70756250D03*
%TO.P,U1,63,GND*%
X140900000Y-84756250D03*
%TO.P,U1,64,GND*%
X154900000Y-84756250D03*
%TO.P,U1,65,GND*%
X154900000Y-70756250D03*
%TD*%
D20*
%TO.P,R4,1*%
%TO.N,GND*%
X152010000Y-106256250D03*
%TO.P,R4,2*%
%TO.N,Net-(J5-CC2)*%
X150990000Y-106256250D03*
%TD*%
D29*
%TO.P,D1,1,K*%
%TO.N,Net-(D1-K)*%
X142250000Y-93181250D03*
%TO.P,D1,2,A*%
%TO.N,+3.3V*%
X142250000Y-94756250D03*
%TD*%
D21*
%TO.P,R2,1*%
%TO.N,Net-(D1-K)*%
X142250000Y-90831250D03*
%TO.P,R2,2*%
%TO.N,GND*%
X142250000Y-89181250D03*
%TD*%
D13*
%TO.P,J2,1,Pin_1*%
%TO.N,+3.3V*%
X164750000Y-87506250D03*
D14*
%TO.P,J2,2,Pin_2*%
%TO.N,RX*%
X164750000Y-90046250D03*
%TO.P,J2,3,Pin_3*%
%TO.N,TX*%
X164750000Y-92586250D03*
%TO.P,J2,4,Pin_4*%
%TO.N,GND*%
X164750000Y-95126250D03*
%TD*%
D30*
%TO.P,J5,A1,GND*%
%TO.N,GND*%
X145300000Y-109676250D03*
%TO.P,J5,A4,VBUS*%
%TO.N,VBUS*%
X146100000Y-109676250D03*
D31*
%TO.P,J5,A5,CC1*%
%TO.N,Net-(J5-CC1)*%
X147250000Y-109676250D03*
%TO.P,J5,A6,D+*%
%TO.N,D+*%
X148250000Y-109676250D03*
%TO.P,J5,A7,D-*%
%TO.N,D-*%
X148750000Y-109676250D03*
%TO.P,J5,A8,SBU1*%
%TO.N,unconnected-(J5-SBU1-PadA8)*%
X149750000Y-109676250D03*
D30*
%TO.P,J5,A9,VBUS*%
%TO.N,VBUS*%
X150900000Y-109676250D03*
%TO.P,J5,A12,GND*%
%TO.N,GND*%
X151700000Y-109676250D03*
%TO.P,J5,B1,GND*%
X151700000Y-109676250D03*
%TO.P,J5,B4,VBUS*%
%TO.N,VBUS*%
X150900000Y-109676250D03*
D31*
%TO.P,J5,B5,CC2*%
%TO.N,Net-(J5-CC2)*%
X150250000Y-109676250D03*
%TO.P,J5,B6,D+*%
%TO.N,D+*%
X149250000Y-109676250D03*
%TO.P,J5,B7,D-*%
%TO.N,D-*%
X147750000Y-109676250D03*
%TO.P,J5,B8,SBU2*%
%TO.N,unconnected-(J5-SBU2-PadB8)*%
X146750000Y-109676250D03*
D30*
%TO.P,J5,B9,VBUS*%
%TO.N,VBUS*%
X146100000Y-109676250D03*
%TO.P,J5,B12,GND*%
%TO.N,GND*%
X145300000Y-109676250D03*
D32*
%TO.P,J5,S1,SHIELD*%
X144180000Y-110251250D03*
D33*
X144180000Y-114431250D03*
D32*
X152820000Y-110251250D03*
D33*
X152820000Y-114431250D03*
%TD*%
D22*
%TO.P,R6,1*%
%TO.N,/USB_P*%
X149500000Y-87256250D03*
%TO.P,R6,2*%
%TO.N,USB_D+*%
X149500000Y-88906250D03*
%TD*%
D34*
%TO.N,GND*%
X153800000Y-73556250D03*
X144900000Y-77756250D03*
X142750000Y-101256250D03*
X160500000Y-78256250D03*
X148250000Y-101506250D03*
X139500000Y-70856250D03*
X141000000Y-86156250D03*
X156300000Y-70856250D03*
X142750000Y-104256250D03*
X136250000Y-81006250D03*
X145000000Y-92256250D03*
X142250000Y-88006250D03*
X142000000Y-71856250D03*
X147900000Y-80856250D03*
X149500000Y-74756250D03*
X150900000Y-77856250D03*
X155000000Y-86356250D03*
X157000000Y-73756250D03*
X139000000Y-77256250D03*
X143250000Y-97506250D03*
X153900000Y-74456250D03*
X146200000Y-74756250D03*
X151500000Y-92256250D03*
X147900000Y-74756250D03*
X142000000Y-72756250D03*
X146300000Y-80756250D03*
X150900000Y-79456250D03*
%TO.N,+3.3V*%
X149900000Y-94006250D03*
X146500000Y-94006250D03*
%TO.N,VBUS*%
X146000000Y-108006250D03*
X144600000Y-108006250D03*
%TO.N,USB_D+*%
X147350000Y-96400000D03*
X148900000Y-94750000D03*
%TO.N,D-*%
X148500000Y-103850000D03*
X146950000Y-103850000D03*
%TO.N,D+*%
X148500000Y-102600000D03*
X150000000Y-102600000D03*
%TD*%
D35*
%TO.N,GND*%
X151700000Y-109676250D02*
X151700000Y-107806250D01*
X139850000Y-72656250D02*
X139710000Y-72796250D01*
X138540000Y-72796250D02*
X138050000Y-72306250D01*
X154900000Y-70756250D02*
X156200000Y-70756250D01*
X142250000Y-89181250D02*
X142250000Y-88006250D01*
X139000000Y-72796250D02*
X138540000Y-72796250D01*
X140900000Y-70756250D02*
X139600000Y-70756250D01*
X147900000Y-79406250D02*
X147900000Y-80856250D01*
X149550000Y-74806250D02*
X149500000Y-74756250D01*
X150480000Y-92256250D02*
X151500000Y-92256250D01*
X140900000Y-72656250D02*
X139850000Y-72656250D01*
X147900000Y-77756250D02*
X146250000Y-79406250D01*
X146250000Y-74806250D02*
X146200000Y-74756250D01*
X152245000Y-109676250D02*
X152820000Y-110251250D01*
X154900000Y-74356250D02*
X154000000Y-74356250D01*
X153850000Y-73506250D02*
X153800000Y-73556250D01*
X146250000Y-79406250D02*
X146250000Y-80706250D01*
X149550000Y-76106250D02*
X149550000Y-74806250D01*
X138050000Y-72306250D02*
X137000000Y-72306250D01*
X141950000Y-71806250D02*
X142000000Y-71856250D01*
X153850000Y-70756250D02*
X141950000Y-70756250D01*
X154000000Y-74356250D02*
X153900000Y-74456250D01*
X145300000Y-106556250D02*
X145600000Y-106256250D01*
X145300000Y-109676250D02*
X144755000Y-109676250D01*
X139600000Y-70756250D02*
X139500000Y-70856250D01*
X146250000Y-77756250D02*
X144900000Y-77756250D01*
X152010000Y-107496250D02*
X152010000Y-106256250D01*
X149550000Y-77756250D02*
X150800000Y-77756250D01*
X145300000Y-109676250D02*
X145300000Y-106556250D01*
X146250000Y-80706250D02*
X146300000Y-80756250D01*
X140900000Y-72656250D02*
X141900000Y-72656250D01*
X142000000Y-70806250D02*
X141950000Y-70756250D01*
X140900000Y-84756250D02*
X140900000Y-86056250D01*
X140900000Y-71806250D02*
X141950000Y-71806250D01*
X139710000Y-72796250D02*
X139000000Y-72796250D01*
X154900000Y-86256250D02*
X155000000Y-86356250D01*
X144755000Y-109676250D02*
X144180000Y-110251250D01*
X150850000Y-79406250D02*
X150900000Y-79456250D01*
X151700000Y-109676250D02*
X152245000Y-109676250D01*
X143230000Y-97526250D02*
X143250000Y-97506250D01*
X160500000Y-76956250D02*
X160500000Y-78256250D01*
X146250000Y-76106250D02*
X146250000Y-74806250D01*
X147900000Y-76106250D02*
X147900000Y-74756250D01*
X156200000Y-70756250D02*
X156300000Y-70856250D01*
X151700000Y-107806250D02*
X152010000Y-107496250D01*
X140900000Y-86056250D02*
X141000000Y-86156250D01*
X141900000Y-72656250D02*
X142000000Y-72756250D01*
X136250000Y-79756250D02*
X136250000Y-81006250D01*
X150800000Y-77756250D02*
X150900000Y-77856250D01*
X149550000Y-79406250D02*
X150850000Y-79406250D01*
X148250000Y-100143750D02*
X148250000Y-101506250D01*
X142000000Y-71856250D02*
X142000000Y-70806250D01*
X157000000Y-72716250D02*
X157000000Y-73756250D01*
X154900000Y-73506250D02*
X153850000Y-73506250D01*
X154900000Y-84756250D02*
X154900000Y-86256250D01*
X146040000Y-92256250D02*
X145000000Y-92256250D01*
X145600000Y-106256250D02*
X145740000Y-106256250D01*
X139000000Y-76216250D02*
X139000000Y-77256250D01*
%TO.N,+3.3V*%
X139000000Y-73756250D02*
X138500000Y-74256250D01*
X142270000Y-98986250D02*
X142270000Y-98506250D01*
X145000000Y-94756250D02*
X145750000Y-94006250D01*
X142270000Y-98506250D02*
X142270000Y-96526250D01*
X129500000Y-76506250D02*
X129500000Y-84256250D01*
X129500000Y-111506250D02*
X134000000Y-111506250D01*
X129500000Y-84256250D02*
X128750000Y-85006250D01*
X128750000Y-99006250D02*
X128750000Y-101006250D01*
X129750000Y-98006250D02*
X128750000Y-99006250D01*
X140900000Y-73506250D02*
X139750000Y-73506250D01*
X139750000Y-73506250D02*
X139500000Y-73756250D01*
X166750000Y-87506250D02*
X167250000Y-88006250D01*
X142270000Y-96526250D02*
X142250000Y-96506250D01*
X128750000Y-87756250D02*
X129000000Y-87506250D01*
X128750000Y-97006250D02*
X128750000Y-87756250D01*
X167250000Y-85006250D02*
X166250000Y-84006250D01*
X135500000Y-98006250D02*
X129750000Y-98006250D01*
X139000000Y-109756250D02*
X140500000Y-108256250D01*
X167250000Y-88006250D02*
X167250000Y-111256250D01*
X163500000Y-71756250D02*
X160000000Y-71756250D01*
X129750000Y-98006250D02*
X128750000Y-97006250D01*
X128750000Y-85006250D02*
X128750000Y-87756250D01*
X167250000Y-111256250D02*
X161156250Y-111256250D01*
X166250000Y-74506250D02*
X163500000Y-71756250D01*
X140500000Y-99006250D02*
X141000000Y-98506250D01*
X141800000Y-99456250D02*
X142270000Y-98986250D01*
X137000000Y-74206250D02*
X131800000Y-74206250D01*
X135750000Y-101856250D02*
X135750000Y-98256250D01*
X135750000Y-109756250D02*
X135750000Y-107831250D01*
X139500000Y-73756250D02*
X139000000Y-73756250D01*
X164750000Y-87506250D02*
X166750000Y-87506250D01*
X128750000Y-110756250D02*
X129500000Y-111506250D01*
X131800000Y-74206250D02*
X129500000Y-76506250D01*
X161156250Y-111256250D02*
X156600000Y-106700000D01*
X128750000Y-101006250D02*
X131250000Y-101006250D01*
X137050000Y-74256250D02*
X137000000Y-74206250D01*
X143250000Y-96506250D02*
X144250000Y-95506250D01*
X156600000Y-97606250D02*
X153000000Y-94006250D01*
X142250000Y-96506250D02*
X143250000Y-96506250D01*
X135750000Y-98256250D02*
X135500000Y-98006250D01*
X129000000Y-87506250D02*
X131250000Y-87506250D01*
X135750000Y-109756250D02*
X139000000Y-109756250D01*
X166250000Y-84006250D02*
X166250000Y-74506250D01*
X142250000Y-96506250D02*
X142250000Y-94756250D01*
X134125000Y-111381250D02*
X135750000Y-109756250D01*
X134000000Y-111506250D02*
X134125000Y-111381250D01*
X167250000Y-88006250D02*
X167250000Y-85006250D01*
X156600000Y-106700000D02*
X156600000Y-97606250D01*
X128750000Y-101006250D02*
X128750000Y-110756250D01*
X153000000Y-94006250D02*
X149900000Y-94006250D01*
X140500000Y-108256250D02*
X140500000Y-99006250D01*
X138500000Y-74256250D02*
X137050000Y-74256250D01*
X145750000Y-94006250D02*
X146500000Y-94006250D01*
X141000000Y-98506250D02*
X142270000Y-98506250D01*
X144250000Y-95506250D02*
X145000000Y-94756250D01*
X141800000Y-100256250D02*
X141800000Y-99456250D01*
%TO.N,RESET*%
X159250000Y-72506250D02*
X160000000Y-72506250D01*
X154900000Y-71806250D02*
X158930000Y-71806250D01*
X158980000Y-71756250D02*
X158980000Y-72236250D01*
X158980000Y-72236250D02*
X159250000Y-72506250D01*
X160500000Y-73006250D02*
X160500000Y-73556250D01*
X160000000Y-72506250D02*
X160500000Y-73006250D01*
X158930000Y-71806250D02*
X158980000Y-71756250D01*
%TO.N,BOOT*%
X139750000Y-75006250D02*
X139500000Y-75256250D01*
X136250000Y-75756250D02*
X136250000Y-76356250D01*
X136750000Y-75256250D02*
X136250000Y-75756250D01*
X139500000Y-75256250D02*
X139000000Y-75256250D01*
X140150000Y-74356250D02*
X139750000Y-74756250D01*
X140900000Y-74356250D02*
X140150000Y-74356250D01*
X139750000Y-74756250D02*
X139750000Y-75006250D01*
X139000000Y-75256250D02*
X136750000Y-75256250D01*
%TO.N,VBUS*%
X143000000Y-107506250D02*
X142750000Y-107256250D01*
X142750000Y-106236250D02*
X143270000Y-106236250D01*
X150500000Y-110604370D02*
X150500000Y-111256250D01*
X144500000Y-107906250D02*
X144600000Y-108006250D01*
X142750000Y-107256250D02*
X142750000Y-106236250D01*
X143750000Y-106756250D02*
X143000000Y-107506250D01*
X142750000Y-106236250D02*
X141480000Y-106236250D01*
X146500000Y-111256250D02*
X146500000Y-110604370D01*
X146100000Y-110204370D02*
X146100000Y-109676250D01*
X143750000Y-105756250D02*
X143750000Y-104256250D01*
X150900000Y-109676250D02*
X150900000Y-110204370D01*
X141250000Y-104006250D02*
X141800000Y-103456250D01*
X146100000Y-109676250D02*
X146100000Y-108106250D01*
X150500000Y-111256250D02*
X146500000Y-111256250D01*
X146100000Y-108106250D02*
X146000000Y-108006250D01*
X143750000Y-104256250D02*
X143700000Y-104206250D01*
X141480000Y-106236250D02*
X141250000Y-106006250D01*
X141800000Y-103456250D02*
X141800000Y-102531250D01*
X143700000Y-104206250D02*
X143700000Y-102531250D01*
X141250000Y-106006250D02*
X141250000Y-104006250D01*
X143270000Y-106236250D02*
X143750000Y-105756250D01*
X150900000Y-110204370D02*
X150500000Y-110604370D01*
X144500000Y-106756250D02*
X143750000Y-106756250D01*
X146500000Y-110604370D02*
X146100000Y-110204370D01*
X144500000Y-106756250D02*
X144500000Y-107906250D01*
%TO.N,USB_D-*%
X147300000Y-93556250D02*
X147300000Y-94139950D01*
X147000000Y-93256250D02*
X147300000Y-93556250D01*
X149200000Y-96039950D02*
X149200000Y-97868750D01*
X147000000Y-92256250D02*
X147000000Y-88906250D01*
X147300000Y-94139950D02*
X149200000Y-96039950D01*
X147000000Y-92256250D02*
X147000000Y-93256250D01*
%TO.N,USB_D+*%
X147350000Y-97818750D02*
X147300000Y-97868750D01*
X149520000Y-92080000D02*
X149500000Y-92060000D01*
X147350000Y-96400000D02*
X147350000Y-97818750D01*
X149500000Y-92060000D02*
X149500000Y-88906250D01*
X149520000Y-92256250D02*
X149520000Y-93236250D01*
X148900000Y-93856250D02*
X148900000Y-94750000D01*
X149520000Y-92256250D02*
X149520000Y-92080000D01*
X149520000Y-93236250D02*
X149200000Y-93556250D01*
X149200000Y-93556250D02*
X148900000Y-93856250D01*
%TO.N,Net-(D1-K)*%
X142250000Y-93181250D02*
X142250000Y-90831250D01*
%TO.N,+5V*%
X148250000Y-96310050D02*
X148250000Y-97868750D01*
X146693750Y-96006250D02*
X147300000Y-95400000D01*
X144500000Y-104506250D02*
X145000000Y-104006250D01*
X145000000Y-96506250D02*
X145500000Y-96006250D01*
X147300000Y-95400000D02*
X147339950Y-95400000D01*
X145000000Y-104006250D02*
X145000000Y-96506250D01*
X145500000Y-96006250D02*
X146693750Y-96006250D01*
X147339950Y-95400000D02*
X148250000Y-96310050D01*
X144500000Y-105786250D02*
X144500000Y-104506250D01*
%TO.N,D-*%
X147750000Y-109676250D02*
X147750000Y-107506250D01*
X147750000Y-107506250D02*
X147500000Y-107256250D01*
X147500000Y-105506250D02*
X147000000Y-105006250D01*
X147000000Y-105006250D02*
X147000000Y-105000000D01*
X148750000Y-109676250D02*
X148750000Y-107256250D01*
X149250000Y-103200000D02*
X149200000Y-103150000D01*
X148750000Y-107256250D02*
X149000000Y-107006250D01*
X147000000Y-105000000D02*
X146500000Y-104500000D01*
X149250000Y-105006250D02*
X149250000Y-103200000D01*
X146500000Y-104300000D02*
X146950000Y-103850000D01*
X149000000Y-107006250D02*
X149000000Y-105256250D01*
X147500000Y-107256250D02*
X147500000Y-105506250D01*
X149000000Y-105256250D02*
X149250000Y-105006250D01*
X146500000Y-104500000D02*
X146500000Y-104300000D01*
X149200000Y-103150000D02*
X149200000Y-100143750D01*
X148500000Y-103850000D02*
X149200000Y-103150000D01*
%TO.N,D+*%
X149250000Y-109676250D02*
X149250000Y-107506250D01*
X149500000Y-107256250D02*
X149500000Y-105506250D01*
X149750000Y-105250000D02*
X150000000Y-105000000D01*
X149750000Y-105256250D02*
X149750000Y-105250000D01*
X148250000Y-109676250D02*
X148250000Y-107256250D01*
X148250000Y-107256250D02*
X148000000Y-107006250D01*
X148000000Y-105256250D02*
X147700000Y-104956250D01*
X150000000Y-105000000D02*
X150000000Y-102600000D01*
X147300000Y-102600000D02*
X147300000Y-100143750D01*
X149500000Y-105506250D02*
X149750000Y-105256250D01*
X149250000Y-107506250D02*
X149500000Y-107256250D01*
X148500000Y-102600000D02*
X147300000Y-102600000D01*
X147700000Y-104956250D02*
X147700000Y-103150000D01*
X148000000Y-107006250D02*
X148000000Y-105256250D01*
X147700000Y-103150000D02*
X147300000Y-102750000D01*
X147300000Y-102750000D02*
X147300000Y-102600000D01*
%TO.N,Net-(J5-CC1)*%
X147250000Y-109676250D02*
X147250000Y-108256250D01*
X146760000Y-107766250D02*
X146760000Y-106256250D01*
X147250000Y-108256250D02*
X146760000Y-107766250D01*
%TO.N,TX*%
X156650000Y-76906250D02*
X161000000Y-81256250D01*
X161000000Y-91756250D02*
X161830000Y-92586250D01*
X161000000Y-81256250D02*
X161000000Y-91756250D01*
X161830000Y-92586250D02*
X164750000Y-92586250D01*
X154900000Y-76906250D02*
X156650000Y-76906250D01*
D36*
%TO.N,RX*%
X161750000Y-89756250D02*
X162040000Y-90046250D01*
X154900000Y-76056250D02*
X156550000Y-76056250D01*
X161750000Y-81256250D02*
X161750000Y-89756250D01*
X162040000Y-90046250D02*
X164750000Y-90046250D01*
X156550000Y-76056250D02*
X161750000Y-81256250D01*
D35*
%TO.N,TDI*%
X158250000Y-103506250D02*
X160830000Y-106086250D01*
X154900000Y-79456250D02*
X155600000Y-79456250D01*
X155600000Y-79456250D02*
X158250000Y-82106250D01*
X158250000Y-82106250D02*
X158250000Y-103506250D01*
X160830000Y-106086250D02*
X164750000Y-106086250D01*
%TO.N,TDO*%
X155600000Y-78606250D02*
X159000000Y-82006250D01*
X159000000Y-101756250D02*
X160790000Y-103546250D01*
X160790000Y-103546250D02*
X164750000Y-103546250D01*
X154900000Y-78606250D02*
X155600000Y-78606250D01*
X159000000Y-82006250D02*
X159000000Y-101756250D01*
%TO.N,TMS*%
X155350000Y-80306250D02*
X157500000Y-82456250D01*
X154900000Y-80306250D02*
X155350000Y-80306250D01*
X157500000Y-82456250D02*
X157500000Y-105506250D01*
X157500000Y-105506250D02*
X160620000Y-108626250D01*
X160620000Y-108626250D02*
X164750000Y-108626250D01*
%TO.N,TCK*%
X159750000Y-81906250D02*
X159750000Y-99256250D01*
X161500000Y-101006250D02*
X164750000Y-101006250D01*
X155600000Y-77756250D02*
X159750000Y-81906250D01*
X154900000Y-77756250D02*
X155600000Y-77756250D01*
X159750000Y-99256250D02*
X161500000Y-101006250D01*
%TO.N,SDA*%
X140900000Y-81156250D02*
X139850000Y-81156250D01*
X139000000Y-102006250D02*
X137500000Y-103506250D01*
X135750000Y-103506250D02*
X131290000Y-103506250D01*
X139850000Y-81156250D02*
X139000000Y-82006250D01*
X131290000Y-103506250D02*
X131250000Y-103546250D01*
X139000000Y-82006250D02*
X139000000Y-102006250D01*
X137500000Y-103506250D02*
X135750000Y-103506250D01*
%TO.N,SCL*%
X138325000Y-106181250D02*
X135750000Y-106181250D01*
X135750000Y-106181250D02*
X131345000Y-106181250D01*
X139750000Y-104756250D02*
X138325000Y-106181250D01*
X140900000Y-82006250D02*
X140000000Y-82006250D01*
X140000000Y-82006250D02*
X139750000Y-82256250D01*
X131345000Y-106181250D02*
X131250000Y-106086250D01*
X139750000Y-82256250D02*
X139750000Y-104756250D01*
%TO.N,IO4*%
X134210000Y-90046250D02*
X131250000Y-90046250D01*
X134500000Y-84506250D02*
X134500000Y-89756250D01*
X140900000Y-77756250D02*
X139750000Y-77756250D01*
X134500000Y-89756250D02*
X134210000Y-90046250D01*
X138250000Y-79256250D02*
X138250000Y-80756250D01*
X139750000Y-77756250D02*
X138250000Y-79256250D01*
X138250000Y-80756250D02*
X134500000Y-84506250D01*
%TO.N,IO5*%
X135250000Y-92006250D02*
X134670000Y-92586250D01*
X135250000Y-84799143D02*
X135250000Y-92006250D01*
X134670000Y-92586250D02*
X131250000Y-92586250D01*
X139000000Y-81049144D02*
X138999999Y-81049144D01*
X138999999Y-81049144D02*
X135250000Y-84799143D01*
X139900000Y-78606250D02*
X139000000Y-79506250D01*
X140900000Y-78606250D02*
X139900000Y-78606250D01*
X139000000Y-79506250D02*
X139000000Y-81049144D01*
%TO.N,Net-(J5-CC2)*%
X150250000Y-109676250D02*
X150250000Y-108506250D01*
X150250000Y-108506250D02*
X150990000Y-107766250D01*
X150990000Y-107766250D02*
X150990000Y-106256250D01*
%TO.N,/USB_N*%
X147900000Y-85500000D02*
X147900000Y-84756250D01*
X147000000Y-86400000D02*
X147900000Y-85500000D01*
X147000000Y-87256250D02*
X147000000Y-86400000D01*
%TO.N,/USB_P*%
X149500000Y-87256250D02*
X149500000Y-86400000D01*
X148750000Y-85650000D02*
X148750000Y-84756250D01*
X149500000Y-86400000D02*
X148750000Y-85650000D01*
%TD*%
%TA.AperFunction,Conductor*%
%TO.N,GND*%
G36*
X143843039Y-97075935D02*
G01*
X143888794Y-97128739D01*
X143900000Y-97180250D01*
X143900000Y-99032250D01*
X143880315Y-99099289D01*
X143827511Y-99145044D01*
X143776000Y-99156250D01*
X143300000Y-99156250D01*
X143300000Y-99305753D01*
X143280315Y-99372792D01*
X143249634Y-99405523D01*
X143227850Y-99421600D01*
X143147207Y-99530867D01*
X143147206Y-99530869D01*
X143102353Y-99659048D01*
X143102353Y-99659050D01*
X143099500Y-99689480D01*
X143099500Y-100823019D01*
X143102353Y-100853449D01*
X143102353Y-100853451D01*
X143147206Y-100981630D01*
X143147207Y-100981632D01*
X143227850Y-101090900D01*
X143337118Y-101171543D01*
X143416957Y-101199480D01*
X143473731Y-101240200D01*
X143499478Y-101305153D01*
X143500000Y-101316520D01*
X143500000Y-101470979D01*
X143480315Y-101538018D01*
X143427511Y-101583773D01*
X143416956Y-101588020D01*
X143337117Y-101615957D01*
X143227850Y-101696600D01*
X143147207Y-101805867D01*
X143147206Y-101805869D01*
X143102353Y-101934048D01*
X143102353Y-101934050D01*
X143099500Y-101964480D01*
X143099500Y-103098019D01*
X143102353Y-103128449D01*
X143102353Y-103128451D01*
X143147206Y-103256630D01*
X143147209Y-103256636D01*
X143225270Y-103362405D01*
X143249241Y-103428034D01*
X143249500Y-103436038D01*
X143249500Y-104265558D01*
X143273712Y-104355922D01*
X143280199Y-104380133D01*
X143280200Y-104380134D01*
X143280201Y-104380137D01*
X143282886Y-104384788D01*
X143299500Y-104446788D01*
X143299500Y-105432250D01*
X143279815Y-105499289D01*
X143227011Y-105545044D01*
X143175500Y-105556250D01*
X143000000Y-105556250D01*
X142989815Y-105566434D01*
X142980315Y-105598789D01*
X142927511Y-105644544D01*
X142876000Y-105655750D01*
X142624000Y-105655750D01*
X142556961Y-105636065D01*
X142511206Y-105583261D01*
X142506811Y-105563061D01*
X142500000Y-105556250D01*
X142224000Y-105556250D01*
X142156961Y-105536565D01*
X142111206Y-105483761D01*
X142100000Y-105432250D01*
X142100000Y-103880250D01*
X142119685Y-103813211D01*
X142172489Y-103767456D01*
X142193327Y-103762922D01*
X142200000Y-103756250D01*
X142200000Y-103697655D01*
X142216613Y-103635655D01*
X142219799Y-103630136D01*
X142231504Y-103586451D01*
X142250500Y-103515559D01*
X142250500Y-103436038D01*
X142270185Y-103368999D01*
X142274730Y-103362405D01*
X142352790Y-103256636D01*
X142352789Y-103256636D01*
X142352793Y-103256632D01*
X142375219Y-103192540D01*
X142397646Y-103128451D01*
X142397646Y-103128449D01*
X142400500Y-103098019D01*
X142400500Y-101964480D01*
X142397646Y-101934050D01*
X142397646Y-101934048D01*
X142352793Y-101805869D01*
X142352792Y-101805867D01*
X142272150Y-101696600D01*
X142250365Y-101680522D01*
X142208115Y-101624875D01*
X142200000Y-101580753D01*
X142200000Y-101206747D01*
X142219685Y-101139708D01*
X142250365Y-101106977D01*
X142272150Y-101090900D01*
X142352793Y-100981632D01*
X142375219Y-100917540D01*
X142397646Y-100853451D01*
X142397646Y-100853449D01*
X142400500Y-100823019D01*
X142400500Y-99689473D01*
X142400365Y-99686588D01*
X142401755Y-99686522D01*
X142414051Y-99623259D01*
X142462345Y-99572767D01*
X142491187Y-99565062D01*
X142500000Y-99556250D01*
X142500000Y-99444715D01*
X142519685Y-99377676D01*
X142536316Y-99357036D01*
X142630489Y-99262864D01*
X142678540Y-99179637D01*
X142689799Y-99160136D01*
X142693008Y-99148158D01*
X142729371Y-99088498D01*
X142792218Y-99057967D01*
X142812783Y-99056250D01*
X143000000Y-99056250D01*
X143000000Y-98856250D01*
X142886819Y-98743069D01*
X142853334Y-98681746D01*
X142850500Y-98655388D01*
X142850500Y-98357112D01*
X142870185Y-98290073D01*
X142886819Y-98269430D01*
X142899999Y-98256250D01*
X142900000Y-98256250D01*
X143000000Y-98156250D01*
X142900001Y-97956251D01*
X142900000Y-97956250D01*
X142899999Y-97956250D01*
X142844500Y-97956250D01*
X142777461Y-97936565D01*
X142731706Y-97883761D01*
X142720500Y-97832250D01*
X142720500Y-97180250D01*
X142740185Y-97113211D01*
X142792989Y-97067456D01*
X142844500Y-97056250D01*
X143776000Y-97056250D01*
X143843039Y-97075935D01*
G37*
%TD.AperFunction*%
%TD*%
M02*
