M48
; DRILL file {KiCad 8.0.6} date 2024-11-03T15:15:50+0200
; FORMAT={-:-/ absolute / metric / decimal}
; #@! TF.CreationDate,2024-11-03T15:15:50+02:00
; #@! TF.GenerationSoftware,Kicad,Pcbnew,8.0.6
; #@! TF.FileFunction,MixedPlating,1,2
FMAT,2
METRIC
; #@! TA.AperFunction,Plated,PTH,ViaDrill
T1C0.300
; #@! TA.AperFunction,Plated,PTH,ComponentDrill
T2C0.600
; #@! TA.AperFunction,Plated,PTH,ComponentDrill
T3C1.000
; #@! TA.AperFunction,NonPlated,NPTH,ComponentDrill
T4C0.650
%
G90
G05
T1
X136.25Y-81.006
X139.0Y-77.256
X139.5Y-70.856
X141.0Y-86.156
X142.0Y-71.856
X142.0Y-72.756
X142.25Y-88.006
X142.75Y-101.256
X142.75Y-104.256
X143.25Y-97.506
X144.6Y-108.006
X144.9Y-77.756
X145.0Y-92.256
X146.0Y-108.006
X146.2Y-74.756
X146.3Y-80.756
X146.5Y-94.006
X146.5Y-96.006
X147.9Y-74.756
X147.9Y-80.856
X148.0Y-96.006
X148.25Y-101.506
X148.25Y-104.256
X148.75Y-102.756
X149.5Y-74.756
X149.9Y-94.006
X150.9Y-77.856
X150.9Y-79.456
X151.5Y-92.256
X153.8Y-73.556
X153.9Y-74.456
X155.0Y-86.356
X156.3Y-70.856
X157.0Y-73.756
X160.5Y-78.256
T3
X131.25Y-87.506
X131.25Y-90.046
X131.25Y-92.586
X131.25Y-95.126
X131.25Y-101.006
X131.25Y-103.546
X131.25Y-106.086
X131.25Y-108.626
X164.75Y-87.506
X164.75Y-90.046
X164.75Y-92.586
X164.75Y-95.126
X164.75Y-101.006
X164.75Y-103.546
X164.75Y-106.086
X164.75Y-108.626
T4
X145.61Y-110.751
X151.39Y-110.751
T2
G00X144.18Y-109.701
M15
G01X144.18Y-110.801
M16
G05
G00X144.18Y-114.031
M15
G01X144.18Y-114.831
M16
G05
G00X152.82Y-109.701
M15
G01X152.82Y-110.801
M16
G05
G00X152.82Y-114.031
M15
G01X152.82Y-114.831
M16
G05
M30
